<svg fill="none" height="58" viewBox="0 0 58 58" width="58" xmlns="http://www.w3.org/2000/svg"><g fill="#960e0e"><path d="m53.9922 20.7543-.8764-2.8283c-.5394-1.7179-1.4367-3.302-2.6327-4.6478-1.1961-1.3459-2.6638-2.4231-4.3065-3.1605-1.6426-.73739-3.4228-1.11833-5.2234-1.1177-1.8005.00064-3.5805.38283-5.2226 1.1214l-3.6168 1.6253c-.9787.4395-2.0395.6667-3.1124.6667s-2.1336-.2272-3.1123-.6667l-3.6168-1.6253c-1.6421-.73857-3.4221-1.12076-5.2226-1.1214-1.8006-.00063-3.5808.38031-5.2235 1.1177-1.6426.7374-3.1103 1.8146-4.30638 3.1605-1.19607 1.3458-2.09335 2.9299-2.6327 4.6478l-.84742 2.7056-3.924042 21.8948c-.169045.84-.1526091 1.7069.048159 2.54.200769.833.581027 1.6122 1.114203 2.283.53318.6709 1.20641 1.2172 1.97265 1.6008.76625.3837 1.60703.5953 2.46358.6203.13141.0068.26282.0097.39327.0097 1.01909.0014 2.02726-.2098 2.96003-.6203.93275-.4105 1.76955-1.0111 2.45695-1.7635l6.589-5.6624c1.0869-.9372 2.4368-1.516 3.8651-1.6572l.5797-.0579c4.2839-.4262 8.5995-.4262 12.8834 0l.5797.0579c1.43.1403 2.7817.7191 3.8699 1.6572l6.5891 5.6624c.7331.7996 1.634 1.4271 2.6382 1.8376 1.0042.4104 2.0867.5936 3.17.5365.8563-.0254 1.6968-.2374 2.4627-.6212s1.4387-.9302 1.9716-1.6009c.5329-.6708.9129-1.4499 1.1135-2.2827.2006-.8329.2169-1.6995.0479-2.5393zm1.2242 25.3869c-.367.4522-.8271.8201-1.349 1.0787-.5218.2586-1.0933.4018-1.6754.42-.8071.0464-1.6144-.0899-2.3615-.3987-.7472-.3089-1.4151-.7823-1.9539-1.3851l-6.7233-5.7889c-1.3884-1.1965-3.1126-1.9346-4.9367-2.1133l-.5798-.0579c-4.411-.4397-8.8549-.4397-13.2659 0l-.5798.0579c-1.8237.1789-3.5476.917-4.9357 2.1133l-6.6345 5.701-.0888.087c-.53931.6038-1.20806 1.078-1.95633 1.387-.74826.3091-1.5567.445-2.3649.3977-.58263-.0107-1.15569-.15-1.67819-.4081-.5225-.258-.98151-.6283-1.34418-1.0844-.36268-.4561-.62005-.9867-.75371-1.5539s-.1403-1.157-.01944-1.727l3.89215-21.7122.8281-2.6505c.4578-1.4572 1.21917-2.8009 2.23397-3.9425 1.0148-1.1417 2.25993-2.0553 3.65353-2.6808 1.3935-.6254 2.9037-.9485 4.4312-.9479 1.5274.0005 3.0374.3248 4.4305.9513l3.6168 1.6253c1.2279.5513 2.5587.8363 3.9047.8363s2.6768-.285 3.9047-.8363l3.6167-1.6253c1.3931-.6265 2.9031-.9508 4.4306-.9513 1.5274-.0006 3.0376.3225 4.4312.9479 1.3935.6255 2.6387 1.5391 3.6535 2.6808 1.0148 1.1416 1.7761 2.4853 2.2339 3.9425l.8281 2.6505 3.8845 21.7122c.1137.5693.1035 1.1565-.0299 1.7215-.1334.5651-.3868 1.0948-.7432 1.5532z"/><path d="m20.7882 18.6593h-1.4494v-1.4494c0-.3844-.1527-.7531-.4245-1.0249s-.6405-.4245-1.0249-.4245h-2.8988c-.3844 0-.7531.1527-1.0249.4245s-.4245.6405-.4245 1.0249v1.4494h-1.4495c-.3844 0-.753.1527-1.0248.4245-.2719.2719-.4246.6405-.4246 1.0249v2.8989c0 .3844.1527.753.4246 1.0248.2718.2719.6404.4246 1.0248.4246h1.4495v1.4494c0 .3844.1527.753.4245 1.0249.2718.2718.6405.4245 1.0249.4245h2.8988c.3844 0 .7531-.1527 1.0249-.4245.2718-.2719.4245-.6405.4245-1.0249v-1.4494h1.4494c.3844 0 .7531-.1527 1.0249-.4246.2718-.2718.4245-.6404.4245-1.0248v-2.8989c0-.3844-.1527-.753-.4245-1.0249-.2718-.2718-.6405-.4245-1.0249-.4245zm-.4831 3.8651h-1.4494c-.3844 0-.7531.1527-1.0249.4245-.2718.2719-.4246.6405-.4246 1.0249v1.4494h-1.9325v-1.4494c0-.3844-.1527-.753-.4245-1.0249-.2718-.2718-.6405-.4245-1.0249-.4245h-1.4494v-1.9325h1.4494c.3844 0 .7531-.1527 1.0249-.4246.2718-.2718.4245-.6404.4245-1.0248v-1.4495h1.9325v1.4495c0 .3844.1528.753.4246 1.0248.2718.2719.6405.4246 1.0249.4246h1.4494z"/><path d="m41.5632 19.6256c1.0673 0 1.9325-.8652 1.9325-1.9326 0-1.0673-.8652-1.9325-1.9325-1.9325-1.0674 0-1.9326.8652-1.9326 1.9325 0 1.0674.8652 1.9326 1.9326 1.9326z"/><path d="m41.5632 27.3558c1.0673 0 1.9325-.8652 1.9325-1.9325s-.8652-1.9326-1.9325-1.9326c-1.0674 0-1.9326.8653-1.9326 1.9326s.8652 1.9325 1.9326 1.9325z"/><path d="m37.6977 23.4908c1.0673 0 1.9325-.8652 1.9325-1.9325s-.8652-1.9326-1.9325-1.9326-1.9326.8653-1.9326 1.9326.8653 1.9325 1.9326 1.9325z"/><path d="m45.4282 23.4908c1.0673 0 1.9325-.8652 1.9325-1.9325s-.8652-1.9326-1.9325-1.9326c-1.0674 0-1.9326.8653-1.9326 1.9326s.8652 1.9325 1.9326 1.9325z"/></g></svg>