<svg fill="none" height="58" viewBox="0 0 58 58" width="58" xmlns="http://www.w3.org/2000/svg"><g fill="#960e0e"><path d="m28.125 33.0407v2.9592h1.75v-2.9592l1.2661-.6327-.7822-1.5662-1.3589.6799-1.3589-.6799-.7822 1.5662z"/><path d="m16.7001 44.3887c-1.0141.6143-1.7001 1.7168-1.7001 2.9864 0 1.9303 1.5697 3.5 3.5 3.5v.875c0 1.9303 1.5697 3.5 3.5 3.5h14c1.9303 0 3.5-1.5697 3.5-3.5v-.875c1.9302 0 3.5-1.5697 3.5-3.5 0-1.2696-.686-2.3721-1.7001-2.9864l.2983-2.4718c4.5107-4.8694 7.5268-12.3218 7.5268-18.6472v-1.2048c0-5.1337-2.0755-9.9663-5.8441-13.60892-3.9402-3.80888-9.4054-5.887-15.0133-5.69275-10.6933.36312-19.3926 9.21987-19.3926 19.74267v.7638c0 6.3254 3.0161 13.7787 7.5267 18.648zm21.0499 7.3614c0 .9651-.7849 1.75-1.75 1.75h-14c-.9651 0-1.75-.7849-1.75-1.75v-.875h17.5zm1.75-2.625h-21c-.9651 0-1.75-.7849-1.75-1.75s.7849-1.75 1.75-1.75h5.25v.875c0 .483.392.875.875.875h8.75c.483 0 .875-.392.875-.875v-.875h5.25c.9651 0 1.75.7849 1.75 1.75s-.7849 1.75-1.75 1.75zm-12.2167-20.783c-.5854-.5127-.9083-1.211-.9083-1.967 0-1.4472 1.1777-2.625 2.625-2.625s2.625 1.1778 2.625 2.625c0 .756-.3229 1.4543-.9082 1.967-.2748.2398-.3711.6248-.2433.966.1277.3413.455.567.8199.567h1.2066c.9651 0 1.75.7849 1.75 1.75v4.7093l-1.2661.6335c-.2966.1478-.4839.4506-.4839.7822v7.875h-7v-7.875c0-.3316-.1873-.6344-.4839-.7831l-1.2661-.6326v-4.7093c0-.9651.7849-1.75 1.75-1.75h1.2066c.3649 0 .6913-.2257.819-.567.1278-.3412.0324-.7271-.2423-.966zm-16.6583-5.8362c0-9.59 7.9415-17.6628 17.703-17.99442 5.2045-.175 10.0826 1.67037 13.7375 5.20187 3.4239 3.31015 5.3095 7.69565 5.3095 12.35065v1.2049c0 5.9062-2.9794 13.1661-7.245 17.6548-.1295.1365-.2118.3107-.2345.4979l-.2966 2.4623c-.0342 0-.0656-.0088-.0989-.0088h-5.25v-5.5842l1.2661-.6335c.2966-.1479.4839-.4507.4839-.7823v-5.25c0-1.7649-1.3125-3.2287-3.0135-3.4659.2537-.5573.3885-1.1646.3885-1.7841 0-2.4124-1.9626-4.375-4.375-4.375s-4.375 1.9626-4.375 4.375c0 .6195.1348 1.2268.3885 1.7841-1.701.2372-3.0135 1.701-3.0135 3.4659v5.25c0 .3316.1872.6344.4839.7831l1.2661.6327v5.5842h-5.25c-.0332 0-.0647.0088-.098.0096l-.2966-2.4622c-.0228-.1873-.105-.3623-.2345-.4979-4.2665-4.4887-7.2459-11.7486-7.2459-17.6549z"/><path d="m25.3102 16.1025-1.4726 4.7644c-.112.364.0236.7586.3351.9765.3115.2178.7298.2082 1.0316-.0219l3.7958-2.9006 3.7949 2.8988c.1566.1199.3438.1803.5311.1803.175 0 .35-.0525.5005-.1575.3115-.2179.448-.6125.3351-.9765l-1.4726-4.7644 3.8412-2.9347c.2984-.2275.4183-.6195.2975-.9757-.1207-.3561-.4541-.595-.8286-.595h-4.7022l-1.4622-4.73107c-.112-.36488-.4515-.61513-.8347-.61513-.3833 0-.7228.25025-.8365.61687l-1.4621 4.73113h-4.7014c-.3754 0-.7088.2389-.8286.595-.1199.3561 0 .7472.2975.9756zm2.037-2.7554c.3833 0 .7228-.2502.8365-.6169l.8164-2.6416.8164 2.6425c.1137.3666.4523.6169.8365.6169h2.7606l-2.2706 1.7351c-.2914.2223-.413.6029-.3054.9538l.8444 2.7317-2.1508-1.6424c-.1566-.1198-.3439-.1802-.5311-.1802-.1873 0-.3745.0595-.5311.1802l-2.1508 1.6424.8444-2.7317c.1085-.35-.014-.7307-.3054-.9538l-2.2706-1.7351h2.7606z"/><path d="m53.5 50h-1.75v1.75h1.75z"/><path d="m53.5 53.5h-1.75v1.75h1.75z"/><path d="m55.25 51.75h-1.75v1.75h1.75z"/><path d="m51.75 51.75h-1.75v1.75h1.75z"/><path d="m6.25 50h-1.75v1.75h1.75z"/><path d="m6.25 53.5h-1.75v1.75h1.75z"/><path d="m8 51.75h-1.75v1.75h1.75z"/><path d="m4.5 51.75h-1.75v1.75h1.75z"/><path d="m54.375 21.125h-3.5v1.75h3.5z"/><path d="m7.125 21.125h-3.5v1.75h3.5z"/><path d="m46.3237 3.43848-2.4748 2.47485 1.2374 1.23742 2.4749-2.47484z"/><path d="m11.6757 3.4386-1.2375 1.23743 2.4749 2.47485 1.2374-1.23743z"/></g></svg>