<svg fill="none" height="58" viewBox="0 0 58 58" width="58" xmlns="http://www.w3.org/2000/svg"><path d="m52.424 23.7854c-2.1749-9.7637-10.1779-17.15423-20.0832-18.54719-7.2787-1.03488-14.6289 1.33728-19.9296 6.43199-3.63358 3.4392-6.08062 7.944-6.98878 12.864-.28272 1.4679-.42432 2.9597-.4224 4.4544 0 13.2547 10.74528 24 23.99998 24s24-10.7453 24-24c.0034-1.7505-.1901-3.4958-.576-5.2032zm-6.8544-9.3888c1.7136 1.9536 3.0658 4.1967 3.9936 6.624h-1.6896c-1.3838-.0005-2.639.8112-3.2064 2.0736-.9715 2.0775-.8496 4.501.3264 6.4704 1.0565 1.3699 1.2567 3.216.5184 4.7808-.2501.4416-.576.7493-.8064.7104-.2304-.0384-.7685-.4416-1.1904-1.5749-1.1904-3.0907-2.6112-3.3403-4.0704-3.36-.8832 0-1.4587 0-2.2848-2.1307-.8261-2.1312.1536-2.9184 1.632-3.7056 1.0555-.5568 2.8032-1.4784 1.92-3.4944-.3254-1.2518-1.6041-2.0035-2.8565-1.6785-.262.0681-.5102.1814-.7339.3345-.7929.4555-1.7419.5535-2.6107.2688-1.068-.4214-1.6877-1.5403-1.4784-2.6688.2299-1.344 1.4587-2.1504 3.2832-2.1504 2.821.1306 5.629-.4569 8.16-1.7088.3259.384.7104.7872 1.0939 1.2096zm-13.44-7.27679 1.0944.2112c-.0753.6984-.3413 1.36224-.768 1.92-.7814.98739-1.9867 1.54319-3.2448 1.49759-2.6275-.3355-5.1537-1.22591-7.4112-2.61119 2.3141-.80976 4.7482-1.22544 7.2-1.2288 1.0287.00336 2.0549.08016 3.072.2304zm-12.8064 22.55949c.2208.2223.5362.3226.8448.2693 1.7741-.4238 3.6432.0418 5.0112 1.248.4383.3187.8933.6134 1.3632.8832.5683.301 1.1592.5578 1.7664.7685 1.8048.6715 2.7648 1.1131 2.7648 2.88-.1598 1.4112-.7267 2.7456-1.632 3.84-1.4213 1.8105-2.2464 4.0176-2.3616 6.3168.0307.4195-.0773.8376-.3072 1.1899-.1747.1637-.4233.2227-.6528.1536-2.1033-.5822-3.4656-2.6136-3.2064-4.7808.2866-2.1168-.9701-4.1386-2.9952-4.8192-1.152-.5184-1.92-.864-1.92-3.0523.0178-.6264.1479-1.2442.384-1.8245.2141-.4853-.0062-1.0517-.491-1.2658-.0586-.0254-.1191-.0455-.181-.059-1.152-.2693-2.4192-1.92-3.648-3.4944-.48-.6144-.96-1.248-1.4592-1.824-1.4304-1.223-3.19726-1.9862-5.06878-2.1888v-.2112c.20592-.8467.46224-1.68.768-2.496l.1728-.4224c.33552-.8098.72-1.5984 1.152-2.3616l.1152-.192c.42868-.7641.90288-1.5014 1.42078-2.208l.1728-.288c.541-.7066 1.1247-1.38 1.7472-2.016l.192-.192c1.4899.8367 3.1253 1.3839 4.8192 1.6128 1.1904 0 3.84.2688 3.84 2.784 0 1.1328-.9216 1.7664-2.4384 2.6496-1.0848.5194-1.9982 1.3387-2.6304 2.3616-1.2864 2.6688.4992 4.7808 2.4576 6.7387zm9.6768 21.3893c-12.1901-.0101-22.06942-9.8899-22.07998-22.08.01008-1.0675.09984-2.1331.2688-3.1872 1.4472.1383 2.82528.684 3.97438 1.5744.48.5568.9408 1.152 1.4016 1.7472 1.0099 1.5245 2.3155 2.8306 3.84 3.84-.1454.5323-.2227 1.081-.2304 1.632-.2697 2.1264 1.0133 4.1429 3.0528 4.8 1.152.5184 1.92.8645 1.92 3.0336-.096 3.936 2.6112 6.72 4.9728 6.72.7819.013 1.5293-.3254 2.0352-.9216.5371-.6888.8098-1.547.768-2.4192.1335-1.9219.8501-3.757 2.0544-5.2608 1.1002-1.3752 1.7688-3.0456 1.92-4.8 0-3.1877-2.3237-4.0507-4.0128-4.6661-.5141-.1733-1.0147-.3854-1.4976-.6331-.4099-.2347-.8073-.491-1.1904-.7685-1.6219-1.355-3.7449-1.9555-5.8368-1.6507-1.92-1.92-2.3232-2.9952-1.7472-4.1856.505-.6782 1.1717-1.2197 1.9392-1.5744 1.5168-.8832 3.3792-1.92 3.3792-4.3008 0-3.4752-3.1488-4.704-5.76-4.704-1.1568-.1661-2.2752-.5366-3.3024-1.0944 1.4155-1.2273 2.9837-2.26607 4.6656-3.09119 1.8048 1.07519 6.2976 3.51359 9.6 3.51359 1.86.0739 3.6408-.756 4.7808-2.2272.5871-.75647.9763-1.64735 1.1323-2.59199 2.8349.80208 5.4797 2.16672 7.776 4.01279-2.0884.8722-4.344 1.272-6.6048 1.1712-2.434-.2885-4.6814 1.3407-5.1652 3.744-.3874 2.0573.7761 4.0911 2.746 4.8 1.32.4421 2.7629.324 3.9936-.3264.2223-.1046.4536-.1881.6908-.2496 0 0 .1536 0 .4032.6336.25.6336.1728.3648-1.0368.9984-1.5164.8064-4.0503 2.1504-2.5143 6.1056 1.1899 3.0912 2.6112 3.3403 4.0699 3.36.8832 0 1.4597 0 2.2848 2.1307.8261 2.1312 2.0352 2.7461 2.8613 2.8032h.1536c1.0978-.0504 2.0755-.7099 2.5339-1.7088 1.1103-2.2128.864-4.8643-.6336-6.8352-.7507-1.3761-.8145-3.024-.1723-4.4544.2343-.6211.8333-1.0281 1.4971-1.0176h2.3232c.1152.4224.2693.8256.3653 1.2672.3322 1.5711.4867 3.1748.4608 4.7808-.0101 12.1906-9.8899 22.0704-22.08 22.0805z" fill="#960e0e"/></svg>