<svg fill="none" height="58" viewBox="0 0 58 58" width="58" xmlns="http://www.w3.org/2000/svg"><g fill="#960e0e"><path d="m24.7999 17.7847c.186.31.372.62.62.868.31.434.744.806 1.178 1.178.124.124.248.186.372.248l.062-.062c3.224-3.224 6.51-6.51 9.734-9.734-.62-.86801-1.364-1.61201-2.294-2.17001-2.914 2.85201-9.3 9.30001-9.672 9.67201zm14.074-8.12201c1.302-.992 2.914-1.612 4.65-1.736h.124.062.124c3.348.124 6.448 2.35601 7.378 5.64201.868 3.224-.31 6.758-3.1 8.68-2.728 1.86-6.51 1.798-9.114-.248-.558-.434-1.054-.93-1.488-1.488-1.612 1.674-3.844 2.728-6.2 2.79-2.604.062-5.146-.93-7.006-2.79-.496.62-1.116 1.24-1.798 1.674-2.728 1.86-6.51 1.798-9.114-.248-2.604-1.984-3.84398-5.642-2.728-8.742 1.178-3.1 3.968-5.14601 7.254-5.33201h.124.062.124c1.736.062 3.348.682 4.712 1.674 1.674-2.666 4.588-4.33999 7.812-4.52599h.124.062.062c3.1.062 6.014 1.67399 7.626 4.33999.124.124.186.248.248.31zm-10.044 11.28401c2.046.62 4.34.31 6.138-.992.558-.372.992-.806 1.426-1.302.248-.372.496-.744.744-1.116.434-.806.682-1.674.806-2.542.124-.806.062-1.674-.124-2.542 0-.124-.062-.248-.124-.372-.558.558-6.448 6.448-8.866 8.866zm3.658-13.64001c-.496-.124-1.054-.186-1.612-.186-2.666.062-5.27 1.674-6.386 4.09201-.062.186-.124.31-.186.496-.124.248-.186.558-.248.806-.248 1.116-.248 2.232 0 3.286.248-.31 6.2-6.26201 8.432-8.49401zm-9.548 11.53201c-1.24-2.17-1.55-4.774-.868-7.13-1.054-.992-2.418-1.612-3.968-1.612-.248 0-.434 0-.682.062-3.038.558-5.332 3.162-5.022 6.262.31 3.038 3.038 5.394 6.076 5.146 1.86-.186 3.534-1.24 4.464-2.728z"/><path d="m26.164 54.7365c.868-.868 13.702-13.702 16.926-16.926l.124-.124c-.496-.992-.992-1.922-1.612-2.852-1.86 1.86-18.228 18.228-19.22 19.22 1.24.31 2.542.496 3.782.682zm.248 2.108c-1.426-.186-2.914-.434-4.278-.744-2.666-.682-5.58-1.922-6.882-4.34-1.302-.124-2.604-.31-3.844-.558-3.34803-.744-7.06803-2.48-7.19203-6.386-.062-3.72.744-7.502 2.418-10.85 1.364-2.666 3.286-5.084 5.76603-6.758 1.612-1.116 3.534-2.046 5.58-2.046 2.046-.062 4.216.744 5.828 1.922.248.186.558.434.806.62 1.736-1.116 3.658-1.922 5.704-2.108 1.24-.062 2.418.062 3.596.434s2.356.93 3.41 1.612c.186-.124.434-.31.62-.434 1.612-1.116 3.534-2.046 5.58-2.046 2.046-.062 4.216.744 5.828 1.922 2.48 1.798 4.526 4.092 5.952 6.82 1.674 3.286 2.48 6.882 2.48 10.602v.248c0 .744-.186 1.426-.434 2.046s-.682 1.612-1.24 2.046c-2.542 2.108-6.014 2.666-9.176 2.976-.062 0-.124 0-.186 0-.372.744-.806 1.488-1.426 1.984-1.24.992-2.728 1.674-4.278 2.108-2.418.682-5.022 1.054-7.564 1.178-.496 0-.992.062-1.488.062-1.86-.062-3.72-.124-5.58-.31zm-9.052-15.004.744-.744c2.852-2.852 12.338-12.338 13.516-13.516-1.054 0-2.17.062-3.286.434-.682.248-1.364.558-1.984.93-.31.186-.62.372-.868.558-.31.186-.558.434-.868.62-3.72 2.914-6.138 7.316-7.254 11.718zm11.408 13.082c1.488.062 2.914.124 4.402.062l11.842-11.842c-.248-1.178-.558-2.356-.93-3.472-.682.682-1.364 1.364-1.984 1.984-2.356 2.232-11.718 11.656-13.33 13.268zm11.718-21.7c-.62-.806-1.364-1.55-2.108-2.232 0 0-.062 0-.062-.062-1.488 1.488-19.53 19.53-19.84 19.84-.248.248-.496.496-.744.744.062.124.186.186.31.31.434.434.93.806 1.55 1.116.248.124.558.248.868.372.434-.558 17.174-17.298 20.026-20.088zm5.022 15.252c0-.992-.062-1.984-.186-2.976-1.364 1.426-8.122 8.122-9.114 9.176l2.232-.372c1.426-.31 2.914-.62 4.154-1.302.434-.248.93-.496 1.302-.806.124-.124.248-.248.372-.372.186-.186.31-.434.434-.682.062-.124.124-.248.186-.372.186-.31.31-.682.434-1.054s.186-.806.186-1.24zm-8.804-18.724-.124-.124c-.31-.186-.62-.372-.93-.558-.62-.372-1.24-.62-1.86-.868-.744.744-13.454 13.454-17.05 17.112-.124 1.178-.248 2.356-.124 3.472 0 .31.062.682.186.992 2.108-2.232 19.282-19.406 19.902-20.026zm-15.438.62c.496-.496 1.054-.992 1.612-1.488-1.116-.806-2.418-1.426-3.782-1.612-1.612-.248-3.224.248-4.65 1.054-2.17 1.302-3.968 3.162-5.27003 5.27-1.86 3.038-2.79 6.572-2.914 10.168 0 .93 0 1.922.558 2.728.496.744 1.178 1.24 1.922 1.612 1.30203.62 2.79003.992 4.27803 1.24.496.062.992.186 1.55.248-.248-1.674-.062-3.472.186-5.146.062-.248.062-.434.124-.682.31-1.798.744-3.534 1.364-5.27 1.116-3.038 2.79-5.828 5.022-8.122z"/></g></svg>