<?xml version="1.0" encoding="UTF-8"?>
<svg width="40px" height="40px" viewBox="0 0 40 40" version="1.1" xmlns="http://www.w3.org/2000/svg" xmlns:xlink="http://www.w3.org/1999/xlink">
    <!-- Generator: Sketch 47.1 (45422) - http://www.bohemiancoding.com/sketch -->
    <title>More Copy 2</title>
    <desc>Created with Sketch.</desc>
    <defs></defs>
    <g id="Studios-Page" stroke="none" stroke-width="1" fill="none" fill-rule="evenodd">
        <g id="Group-18" transform="translate(-41.000000, -288.000000)">
            <g id="More-Copy-2" transform="translate(41.000000, 288.000000)">
                <circle id="Circle" stroke="#FFFFFF" stroke-width="2" cx="20" cy="20" r="19"></circle>
                <path d="M24.6588235,21.1684945 L21.4558824,24.5902293 C21.0676471,25.004985 21.0676471,25.6271186 21.4558824,26.0418744 C21.8441176,26.4566301 22.4264706,26.4566301 22.8147059,26.0418744 L27.4735294,21.0648056 C27.6882375,20.8354307 27.7842043,20.5109163 27.7614298,20.2140322 C27.7842043,19.9279587 27.6882375,19.6351575 27.4735294,19.4057827 L22.8147059,14.4287139 C22.4264706,14.0139581 21.8441176,14.0139581 21.4558824,14.4287139 C21.0676471,14.8434696 21.0676471,15.4656032 21.4558824,15.8803589 L24.4647059,19.0947159 L13.2058824,19.0947159 C12.7205882,19.0947159 12.2352941,19.5094716 12.2352941,20.1316052 C12.2352941,20.6500499 12.6235294,21.1684945 13.2058824,21.1684945 L24.6588235,21.1684945 Z" id="Arrow" fill="#FFFFFF"></path>
            </g>
        </g>
    </g>
</svg>