<svg width="480" height="301" viewBox="0 0 480 301" fill="none" xmlns="http://www.w3.org/2000/svg">
<path d="M43.0276 126.128L59.8465 151.114L84.1864 126.984L77.2877 167.353H99.4531L112.592 90.4698H91.4289L64.9392 116.801L47.3609 90.4698H27.0533L13.9141 167.353H35.9829L43.0276 126.128Z" fill="white"/>
<path d="M115.209 161.875C118.219 165.51 122.287 167.353 127.299 167.353H171.628C176.334 167.353 180.728 165.656 184.688 162.309C188.644 158.962 191.061 154.854 191.875 150.099L198.917 108.885C199.766 103.904 198.657 99.5453 195.615 95.9275C192.569 92.3063 188.523 90.4698 183.588 90.4698H139.259C134.479 90.4698 130.064 92.1703 126.138 95.5242C122.222 98.8702 119.825 102.974 119.012 107.724L111.97 148.938C111.123 153.91 112.212 158.263 115.209 161.875ZM134.964 143.515L140.043 113.796C140.169 113.064 140.798 112.533 141.539 112.533H174.233C174.847 112.533 175.224 112.871 175.395 113.072C175.563 113.273 175.833 113.701 175.73 114.305L170.65 144.026V144.028C170.525 144.759 169.896 145.289 169.154 145.289H136.46C135.847 145.289 135.469 144.951 135.301 144.75C135.13 144.548 134.86 144.12 134.964 143.515Z" fill="white"/>
<path d="M259.832 167.353C264.604 167.353 269.029 165.656 272.99 162.309C276.945 158.961 279.363 154.853 280.176 150.081L282.047 138.755C282.353 136.967 282.784 133.625 282.256 131.316C281.843 129.505 281.661 129.079 280.758 127.121C280.144 125.79 278.929 124.578 277.642 123.577C279.01 121.813 280.376 119.402 280.908 116.408L282.193 108.887C283.044 103.906 281.935 99.5454 278.895 95.9275C275.851 92.3063 271.803 90.4698 266.868 90.4698H211.633L198.494 167.353H259.832V167.353ZM229.057 117.666L230.041 111.831H256.872C257.593 111.831 258.033 112.227 258.233 112.463C258.431 112.699 258.748 113.2 258.626 113.906L258.249 116.186C258.103 117.043 257.366 117.666 256.497 117.666H229.057V117.666ZM224.332 145.289L225.346 139.36H257.399C258.201 139.36 258.693 139.801 258.914 140.064C259.136 140.327 259.489 140.886 259.354 141.673L259.017 143.642C258.853 144.596 258.033 145.289 257.065 145.289H224.332Z" fill="white"/>
<path d="M319.699 90.4698H297.826L284.687 167.353H306.56L319.699 90.4698Z" fill="white"/>
<path d="M365.034 167.353L387.098 145.289H341.899L351.284 90.3721H329.216L316.061 167.353H365.034Z" fill="white"/>
<path d="M468.606 112.533L472.378 90.4698H400.74L387.601 167.353H459.239L463.01 145.289H413.632L414.596 139.633H447.348L451.098 118.153H418.302L419.241 112.533H468.606Z" fill="white"/>
<path d="M96.0823 276.865C91.2211 276.865 86.7709 274.205 84.4661 269.922L66.4053 236.293C69.3863 235.523 72.1988 234.017 74.8092 231.787C78.7629 228.412 81.1733 224.324 81.9752 219.635L85.064 201.559C85.9041 196.65 84.7944 192.312 81.7685 188.664C78.7268 184.999 74.6474 183.14 69.6401 183.14H11.2288L0.657227 245.009L16.5641 281.039L27.2525 218.491L62.3187 281.638C68.7951 293.275 81.0898 300.504 94.4065 300.504H419.298L443.425 276.376L96.1003 276.865C96.0935 276.865 96.089 276.865 96.0823 276.865ZM29.5416 205.107H60.3872C61.005 205.107 61.3846 205.447 61.5553 205.65C61.726 205.853 61.9956 206.282 61.8923 206.891L60.7534 213.557C60.6276 214.292 59.9941 214.827 59.2483 214.827H27.8793L29.5416 205.107Z" fill="white"/>
<path d="M160.107 260.879L170.097 202.413C170.949 197.436 169.839 193.076 166.795 189.452C163.749 185.832 159.67 183.996 154.671 183.996H113.555C108.777 183.996 104.363 185.696 100.438 189.05C96.5228 192.392 94.1259 196.496 93.3127 201.251L86.542 240.863L95.1166 257.226C95.5614 258.083 97.235 260.88 100.182 260.88H104.385L108.952 238.33H141.698L137.846 260.88H160.107V260.879ZM146.91 207.834L145.468 216.266H112.812L114.339 207.324C114.465 206.59 115.094 206.059 115.838 206.059H145.414C146.027 206.059 146.405 206.397 146.573 206.598C146.744 206.8 147.013 207.228 146.91 207.834Z" fill="white"/>
<path d="M199.344 207.331C199.469 206.594 200.103 206.059 200.851 206.059H253.111L256.881 183.996H198.562C193.784 183.996 189.367 185.696 185.438 189.05C181.525 192.395 179.128 196.499 178.315 201.251L171.272 242.464C170.423 247.437 171.515 251.79 174.512 255.404C177.522 259.037 181.59 260.879 186.602 260.879H228.312L250.345 238.815H195.776C195.158 238.815 194.779 238.475 194.608 238.273C194.437 238.07 194.165 237.639 194.269 237.029L199.344 207.331Z" fill="white"/>
<path d="M286.006 183.996H264.133L250.993 260.879H272.867L286.006 183.996Z" fill="white"/>
<path d="M310.49 219.687L338.062 260.879H358.368L371.507 183.996H349.245L342.24 224.987L314.83 183.996H294.522L281.383 260.879H303.452L310.49 219.687Z" fill="white"/>
<path d="M438.403 183.996H397.289C392.511 183.996 388.095 185.696 384.166 189.05C380.252 192.395 377.855 196.499 377.042 201.251L370 242.465C369.151 247.437 370.242 251.791 373.239 255.404C376.249 259.038 380.318 260.88 385.329 260.88H426.443C431.214 260.88 435.64 259.182 439.6 255.835C443.556 252.487 445.973 248.379 446.784 243.626L451.994 213.156H423.122L404.863 231.414H426.96L425.691 237.6C425.547 238.304 424.92 238.815 424.201 238.815H394.495C393.879 238.815 393.504 238.477 393.333 238.275C393.162 238.073 392.891 237.644 392.994 237.038L398.073 207.325C398.199 206.592 398.828 206.059 399.571 206.059L452.688 206.027L453.576 201.638C454.427 196.658 453.568 193.073 450.527 189.455C447.485 185.832 443.406 183.996 438.403 183.996Z" fill="white"/>
<path d="M479.262 50.4386L355.966 50.6568L332.015 74.5136H475.132L479.262 50.4386Z" fill="white"/>
<path d="M271.387 66.6834H274.307V74.5137H275.921V66.6834H278.854V65.288H271.387V66.6834ZM279.9 74.5136H281.438V67.3938H281.464L284.022 74.5136H285.353L287.911 67.3938H287.936V74.5136H289.474V65.2879H287.226L284.745 72.5113H284.72L282.174 65.2879H279.9V74.5136H279.9Z" fill="#E10600"/>
<path d="M105.643 42.7463L72.8951 74.5136H31.127L83.0919 22.9408C102.407 3.82159 111.722 0.684082 144.666 0.684082H274.774L246.537 28.3334H148.391C123.782 28.3334 118.546 30.2297 105.643 42.7463ZM242.321 32.7455H148.98C124.194 32.7455 120.317 34.6417 109.074 45.8838L80.4446 74.5136H119.173L128.39 65.2972C134.477 59.21 137.196 58.63 149.47 58.63H216.436L242.321 32.7455ZM252.419 74.5136L326.445 0.684082H280.461L206.631 74.5136H252.419Z" fill="#E10600"/>
</svg>
