<svg xmlns="http://www.w3.org/2000/svg" viewBox="0 0 425 110" width="425px" height="110px"><defs><style>.cls-1{fill:#fff;}.cls-2{fill:none;}</style></defs><title>swbf2-white-logo-low-padding</title><g id="Layer_2" data-name="Layer 2"><g id="SW_BATTLEFRONT_II_LOGO_W" data-name="SW BATTLEFRONT II LOGO W"><polygon class="cls-1" points="223.63 85.19 223.63 84.13 224.02 84.13 224.02 83.97 223.04 83.97 223.04 84.13 223.43 84.13 223.43 85.19 223.63 85.19"/><polygon class="cls-1" points="225.63 85.19 225.63 83.97 225.32 83.97 224.96 84.9 224.59 83.97 224.27 83.97 224.27 85.19 224.48 85.19 224.48 84.17 224.48 84.17 224.89 85.19 225.02 85.19 225.42 84.17 225.43 84.17 225.43 85.19 225.63 85.19"/><polygon class="cls-1" points="0 83.97 0 89.72 191.32 89.72 194.9 83.97 0 83.97"/><polygon class="cls-1" points="425 83.97 425 89.72 233.77 89.72 230.19 83.97 425 83.97"/><polygon class="cls-1" points="220.13 83.97 212.19 96.69 203.18 96.69 205.17 93.51 211.25 93.51 213.23 90.33 200.48 90.33 198.5 93.51 201.41 93.51 197.45 99.87 213.94 99.87 220.13 89.97 222.34 93.51 220.51 93.51 218.52 96.69 224.33 96.69 226.31 99.87 230.06 99.87 220.13 83.97"/><polygon class="cls-1" points="217.54 83.97 204.47 83.97 202.47 87.15 215.55 87.15 217.54 83.97"/><path class="cls-1" d="M425,20.62H283c0,.23,0,.47,0,.73a6.42,6.42,0,0,1-1.83,4.53c-.18.18-.36.33-.54.48H425Z"/><path class="cls-1" d="M188.31,26.36V21.72l3.44,3.42a5.15,5.15,0,0,0,3.14,1.22h9.82V20.62h-7.93c-1,0-1.05-.39-1.05-.45s.13-.16.13-.16a9.39,9.39,0,0,0,1.11-.75,4.63,4.63,0,0,0,1.78-3.8A4.84,4.84,0,0,0,197,11.57a6.51,6.51,0,0,0-3.69-1.44H181.81V26.36h6.49m3.44-11.64a1.07,1.07,0,0,1,1.16,1.06,1,1,0,0,1-.86,1h-3.67V14.72Z"/><path class="cls-1" d="M257.42,26.36V21.72l3.45,3.42A5.17,5.17,0,0,0,264,26.36H276.6a5.05,5.05,0,0,0,3.66-1.48,5.21,5.21,0,0,0,.1-7c-.35-.42-1.76-1.89-2.05-2.19a.17.17,0,0,1-.06-.12.16.16,0,0,1,.11-.16h8.12V10.13H276a6.22,6.22,0,0,0-3.14,1.07A4.76,4.76,0,0,0,271,14.91a5.74,5.74,0,0,0,1.12,3.22c.57.7,2,2.16,2,2.16a.16.16,0,0,1,.06.13.19.19,0,0,1-.2.19H265.9c-1,0-1-.39-1-.44S265,20,265,20a8.58,8.58,0,0,0,1.11-.75,4.64,4.64,0,0,0,1.79-3.8,4.84,4.84,0,0,0-1.77-3.89,6.5,6.5,0,0,0-3.7-1.43H250.93V26.36Zm.07-11.64h3.38A1.07,1.07,0,0,1,262,15.78a1,1,0,0,1-.86,1h-3.68Z"/><path class="cls-1" d="M217.71,26.36l2-6.24,1.9,6.24h5.56s5-16.21,5-16.23h-6.23l-1.33,4.42-1.4-4.42h-6.79l-1.25,4.42-1.33-4.42h-6.66l5.08,16.23Z"/><path class="cls-1" d="M236,26.36l.75-2.35h5.58l.76,2.35h6L244,10.13h-9.1s-5,16.2-5,16.23Zm3.59-11.27L241,19.6H238.2Z"/><path class="cls-1" d="M167.7,26.36l.74-2.35H174l.75,2.35h6l-5.09-16.23h-9.09s-5,16.2-5,16.23Zm3.59-11.27,1.41,4.51h-2.81Z"/><path class="cls-1" d="M141.67,26.36a4.94,4.94,0,0,0,5.08-5,5,5,0,0,0-1.32-3.5c-.35-.42-1.75-1.88-2-2.18a.14.14,0,0,1-.06-.12.17.17,0,0,1,.1-.16H151v11h5.84V15.42H164V10.13H141.11A6.1,6.1,0,0,0,138,11.21a4.72,4.72,0,0,0-1.93,3.7,5.77,5.77,0,0,0,1.11,3.22c.57.7,2,2.17,2,2.17a.19.19,0,0,1,.05.13.2.2,0,0,1-.2.2H0v5.74Z"/><polygon class="cls-1" points="288.68 11.35 288.68 10.29 289.07 10.29 289.07 10.13 288.09 10.13 288.09 10.29 288.48 10.29 288.48 11.35 288.68 11.35"/><polygon class="cls-1" points="290.68 11.35 290.68 10.13 290.37 10.13 290 11.06 289.63 10.13 289.32 10.13 289.32 11.35 289.52 11.35 289.52 10.33 289.53 10.33 289.94 11.35 290.06 11.35 290.47 10.33 290.48 10.33 290.48 11.35 290.68 11.35"/><path class="cls-1" d="M27.22,74.59v-.93a11.06,11.06,0,0,0,1.33-.1c2.37-.31,3.34-2,4.37-4.62l12.9-31.86c.1-.24.19-.47.28-.66.44-1,.73-1.39,1.15-1.39s.77.46,1.29,1.64C49.77,39.5,58,60.05,61.28,67.86c1.95,4.62,3.44,5.34,4.52,5.6a11.56,11.56,0,0,0,2.16.2v.93H55.08v-.9c.35,0,1.73.21,1.11-1.26L52.08,61.85a.48.48,0,0,0-.51-.36H40.11c-.25,0-.36.1-.46.41l-2.77,7a9.78,9.78,0,0,0-.77,3.13c0,.93.46,1.59,2,1.59h.77v.93ZM50.59,58.92c.26,0,.31-.16.26-.31L46.23,46c0-.2-.11-.46-.26-.46s-.26.26-.31.46L40.93,58.56c0,.2,0,.36.21.36Z"/><path class="cls-1" d="M135.51,73.51a8.12,8.12,0,0,0,1.87-.21c1-.2,1.29-1.33,1.49-2.82.26-2.16.26-6.22.26-10.94V50.65c0-7.81,0-9.25-.1-10.89s-.52-2.57-2.21-2.93a7.2,7.2,0,0,0-1.7-.16v-.92h14.46v.92a13,13,0,0,0-2,.16c-1.39.25-1.8,1.13-1.91,2.93-.1,1.64-.1,3.08-.1,10.89v8.89c0,6.57,0,10.12,1.08,11,.87.77,2.21,1.13,6.22,1.13,2.72,0,4.77,0,6.05-1.44a6.32,6.32,0,0,0,1.33-3.08h.94a41.69,41.69,0,0,1-.77,6c-.31,1.13-.57,1.39-3.24,1.39H135.51Z"/><path class="cls-1" d="M184.23,35.75h-20.5v.92a9.89,9.89,0,0,1,2,.16c1.7.36,2.11,1.18,2.21,2.93s.1,3.08.1,10.89v9c0,4.73,0,8.78-.25,10.94-.21,1.49-.47,2.62-1.49,2.83a8.6,8.6,0,0,1-1.85.2v.93h20.91c1.95,0,2.41,0,2.77-1.34a51.22,51.22,0,0,0,.71-6.47h-.9c-.36,2.11-1.09,4-2.43,4.57a12.94,12.94,0,0,1-4.83.62c-5.24,0-6.06-.77-6.16-4.32-.05-1.49,0-6.21,0-8V55.63c0-.31,0-.51.31-.51,1.23,0,6.31.05,7.29.15,1.9.21,2.62,1,2.88,2a19.75,19.75,0,0,1,.28,2.16h.85l.66-8.42h-.66a3.31,3.31,0,0,1-3,1.44c-1.19,0-7.09.1-8.22.1-.31,0-.36-.21-.36-.57V39c0-.36.1-.52.36-.52,1,0,6.42.1,7.29.21,2.57.31,3.13.92,3.49,1.85a10.57,10.57,0,0,1,.38,2.56h.82l.75-7.88h-.49a6,6,0,0,1-2.89.54"/><path class="cls-1" d="M214.58,35.75H193.31v.92a9.89,9.89,0,0,1,2,.16c1.7.36,2.11,1.18,2.21,2.93s.1,3.08.1,10.89v9c0,4.93,0,8.78-.25,10.94-.21,1.49-.47,2.62-1.49,2.83a9.53,9.53,0,0,1-1.93.2v.93h15v-.93a22.41,22.41,0,0,1-2.58-.2c-1.54-.21-1.85-1.34-2-2.83-.25-2.16-.25-6-.25-10.94V55.53c0-.36.1-.47.36-.47.87,0,6.32,0,7.6.16a3,3,0,0,1,2.62,1.85,9.3,9.3,0,0,1,.31,2.17h.89l.75-8.21H216a3.25,3.25,0,0,1-2.62,1.42c-.73,0-1.44,0-2.32,0l-6.57,0c-.31,0-.36-.16-.36-.46V39.24c0-.56.15-.72.46-.72l7.91.16c1.95,0,3,.82,3.39,1.54a10,10,0,0,1,.42,2.77h.85l.74-7.78h-.36a6.17,6.17,0,0,1-2.93.54"/><path class="cls-1" d="M222.11,35.9h7.29c1.75,0,5.66-.15,7.25-.15,3.24,0,6.68.31,9.46,2.21a8.91,8.91,0,0,1,3.49,7c0,3.8-1.59,7.29-6.78,11.5C247.39,62.26,250.93,66.83,254,70c2.88,3,5,3.34,5.76,3.49a8.28,8.28,0,0,0,1.44.15v.93h-5.24c-2.88,0-4.17-.26-5.5-1-2.21-1.18-4.16-3.59-7-7.55-2.06-2.83-4.42-6.32-5.09-7.09a1.05,1.05,0,0,0-.92-.36l-4.47-.1c-.26,0-.41.1-.41.41v.72c0,4.78,0,8.83.26,11,.15,1.49.46,2.62,2,2.83a24.22,24.22,0,0,0,2.52.2v.93H222.83v-.93a8.6,8.6,0,0,0,1.85-.2c1-.21,1.28-1.34,1.49-2.83.26-2.16.26-6.21.26-10.94v-9c0-7.81,0-9.25-.11-10.89s-.51-2.57-2.21-2.93a9.89,9.89,0,0,0-2-.16Zm10.38,18.81c0,.56.1.77.46.92a13.52,13.52,0,0,0,3.9.52c2.06,0,2.73-.21,3.65-.88,1.54-1.13,3-3.49,3-7.71,0-7.29-4.83-9.4-7.86-9.4a10.89,10.89,0,0,0-2.72.21c-.36.1-.46.31-.46.72Z"/><path class="cls-1" d="M256,55.17c0-8.79,5.8-20.14,21.22-20.14,12.79,0,20.75,7.45,20.75,19.21s-8.22,21.07-21.27,21.07c-14.74,0-20.7-11-20.7-20.14m34.78,1c0-11.5-6.63-18.65-15.05-18.65-5.91,0-12.64,3.29-12.64,16.09,0,10.68,5.91,19.16,15.77,19.16,3.6,0,11.92-1.75,11.92-16.6"/><path class="cls-1" d="M130.51,34.85a5.53,5.53,0,0,1-2.23.62c-1.5.16-3.47.26-5.18.26H105.77c-1.72,0-3.69-.1-5.19-.26a5.65,5.65,0,0,1-2.23-.62h-.62l.13,7.57h.94a8.23,8.23,0,0,1,1-2.23c.78-1.14.8-1.4,3.81-1.5l7.72-.21V59.73c0,4.77,0,8.69-.26,10.87-.15,1.5-.47,2.64-1.5,2.85a18.56,18.56,0,0,1-2.68.26v.88H122v-.88a18.56,18.56,0,0,1-2.68-.26c-1-.21-1.34-1.35-1.5-2.85-.26-2.18-.26-6.1-.26-10.87V38.48l7.73.21c3,.1,3,.36,3.8,1.5a8.67,8.67,0,0,1,1,2.23H131l.13-7.57Z"/><path class="cls-1" d="M95.54,34.85a5.59,5.59,0,0,1-2.23.62c-1.5.16-3.47.26-5.18.26H70.79c-1.71,0-3.68-.1-5.18-.26a5.59,5.59,0,0,1-2.23-.62h-.62l.13,7.57h.93a8.67,8.67,0,0,1,1-2.23c.78-1.14.8-1.4,3.81-1.5l7.72-.21V59.73c0,4.77,0,8.69-.26,10.87-.16,1.5-.47,2.64-1.5,2.85a18.56,18.56,0,0,1-2.68.26v.88H87v-.88a18.56,18.56,0,0,1-2.68-.26c-1-.21-1.35-1.35-1.5-2.85-.26-2.18-.26-6.1-.26-10.87V38.48l7.72.21c3,.1,3,.36,3.81,1.5a8.67,8.67,0,0,1,1,2.23H96l.13-7.57Z"/><path class="cls-1" d="M376.43,34.85a5.66,5.66,0,0,1-2.23.63c-1.5.15-3.47.25-5.18.25H351.69c-1.71,0-3.68-.1-5.18-.25a5.66,5.66,0,0,1-2.23-.63h-.62l.13,7.57h.93a8.57,8.57,0,0,1,1-2.23c.78-1.14.81-1.4,3.81-1.5l7.73-.21V59.73c0,4.77,0,8.69-.26,10.87-.16,1.5-.47,2.64-1.51,2.85a18.26,18.26,0,0,1-2.67.26v.88h15.11v-.88a18.56,18.56,0,0,1-2.67-.26c-1-.21-1.35-1.35-1.51-2.85-.25-2.18-.25-6.1-.25-10.87V38.48l7.72.21c3,.1,3,.36,3.81,1.5a8.23,8.23,0,0,1,1,2.23h.94l.13-7.57Z"/><path class="cls-1" d="M13.41,35.75c9.3,0,10.94,5,10.94,7.7,0,4.21-2.41,6.73-5.24,9,4.21,1.44,9.35,5.09,9.35,11.1,0,5.5-4.26,11-13.72,11H.27v-.92a13.87,13.87,0,0,0,2.2-.21c1-.2,1.28-1.33,1.49-2.82.25-2.16.25-6.22.25-10.94v-9c0-7.81,0-9.25-.1-10.89S3.6,37.19,1.9,36.83a9.17,9.17,0,0,0-1.85-.16v-.92Zm-3,15.77c0,.41.15.51.36.56a11.78,11.78,0,0,0,2.41.16c1.7,0,2.83-.21,3.7-1C18.19,50.18,19,48.33,19,45.82c0-3.44-2-8-6.43-8a7.76,7.76,0,0,0-1.69.11c-.36.1-.46.3-.46.87Zm6.78,4.11a7.43,7.43,0,0,0-4.26-1.24c-.93,0-1.44,0-2.21,0-.21,0-.31.11-.31.36V66.88c0,3.39.15,4.26,1.8,4.93a9.14,9.14,0,0,0,3.75.62c2.31,0,6.21-1.24,6.21-6.58a12.24,12.24,0,0,0-5-10.22"/><path class="cls-1" d="M328.19,35.75v.92a9.83,9.83,0,0,1,3,.31c1.23.51,1.69,1.49,1.75,4.62l.51,23.07h-.26c-.87-.82-7.81-8.22-11.3-11.71-7.5-7.45-15.31-15.67-15.93-16.34a8.29,8.29,0,0,0-.9-.87h-7.18v1.09a8.12,8.12,0,0,1,3.24.7c.86.42,2.06,1.34,2.17,5.81v.35L302.9,67c0,4.47-.25,6-1.59,6.37a13.84,13.84,0,0,1-2.83.25v.93h13.8v-.93a13.48,13.48,0,0,1-3.42-.35c-1-.37-1.7-1.7-1.8-5.71l-.56-21.42h.15c.93,1,6.63,7.24,12.23,12.79,5.34,5.29,11.92,12,15.16,15.1.56.57,1.18,1.14,1.74,1.14s.67-.47.67-1.6L337,41.19c.05-2.87.46-3.95,1.9-4.36a13.24,13.24,0,0,1,2.46-.16v-.92Z"/><path class="cls-1" d="M371.13,72.87h.63v1.72h.33V72.87h.63V72.6h-1.59Zm3.69-.27-.59,1.51-.6-1.51h-.51v2h.33V72.93h0l.66,1.66h.21l.65-1.66h0v1.66h.33v-2Z"/><path class="cls-1" d="M402.91,39.76c.1-1.75.51-2.57,2.2-2.93a7.2,7.2,0,0,1,1.7-.16v-.92H392.35v.92a7.2,7.2,0,0,1,1.7.16c1.69.36,2.1,1.18,2.21,2.93s.1,3.08.1,10.89v4.52h0v4.52c0,7.81,0,9.25-.1,10.89s-.52,2.57-2.21,2.93a7.86,7.86,0,0,1-1.7.15v.93h14.46v-.93a7.86,7.86,0,0,1-1.7-.15c-1.69-.36-2.1-1.18-2.2-2.93s-.11-3.08-.11-10.89V55.17h0V50.65c0-7.81,0-9.25.11-10.89"/><path class="cls-1" d="M421.1,39.76c.1-1.75.51-2.57,2.2-2.93a7.2,7.2,0,0,1,1.7-.16v-.92H410.54v.92a7.2,7.2,0,0,1,1.7.16c1.69.36,2.1,1.18,2.21,2.93s.1,3.08.1,10.89v4.52h0v4.52c0,7.81,0,9.25-.1,10.89s-.52,2.57-2.21,2.93a7.86,7.86,0,0,1-1.7.15v.93H425v-.93a7.86,7.86,0,0,1-1.7-.15c-1.69-.36-2.1-1.18-2.2-2.93S421,67.5,421,59.69V55.17h0V50.65c0-7.81,0-9.25.11-10.89"/><rect class="cls-2" width="425" height="110"/></g></g></svg>