<svg xmlns="http://www.w3.org/2000/svg" viewBox="0 0 1000 347.75"><defs><style>.cls-1{fill:#fff;}</style></defs><title>burnout-paradise-remastered-mono-logo</title><g id="Layer_2" data-name="Layer 2"><g id="Logo"><path class="cls-1" d="M660.18,3.79l-2.84,7.06h-2.4l2.84-7.06h-1.25l.56-1.4h5.31l-.56,1.4Zm6.87-1.4H670l-3.42,8.46h-2.16l2-4.87h-.1l-2.82,4.87h-1.35L663.22,6h-.09l-2,4.87H659l3.41-8.46h2.93l-.92,4.28h.1l2.54-4.28Z"/><path class="cls-1" d="M255.4,87.64,289.85,2.39h23q15.06,0,18,3.05T329.08,20l-3.6,8.92a23.86,23.86,0,0,1-5.77,9,16.88,16.88,0,0,1-8.53,4c2.94,1.16,4.67,2.75,5.17,4.77s-.1,5.16-1.83,9.43L308.93,69.9q-4.69,11.64-10.1,14.69t-20.27,3Zm49.45-57.82,3.83-9.49c.72-1.78.9-2.92.55-3.43s-1.4-.77-3.16-.77h-1.55L297.31,34a7.71,7.71,0,0,1,.89.07,6.15,6.15,0,0,0,.83.08,7.07,7.07,0,0,0,3.4-.67,4,4,0,0,0,1.8-2.1ZM288.78,69.59l6.5-16.09c.72-1.78.9-2.92.55-3.44s-1.4-.77-3.16-.77h-1.55l-9.9,24.51c.19,0,.49,0,.9,0l.84.05a7.33,7.33,0,0,0,3.39-.64,4.06,4.06,0,0,0,1.81-2.13Z"/><path class="cls-1" d="M343.73,2.39H364L336.6,70.11a5.86,5.86,0,0,0-.66,3.25c.19.63.82,1,1.89,1a4.08,4.08,0,0,0,4-2.72l.6-1.48L369.82,2.39H390L362.47,70.62q-4.7,11.64-9.79,14.64t-20.48,3q-15.57,0-18.12-3.07t2.09-14.56Z"/><path class="cls-1" d="M363.75,87.64,398.2,2.39h23q15.06,0,18,3.05T437.43,20l-3.56,8.82q-3.75,9.29-7.05,12.41a22.05,22.05,0,0,1-9.33,4.82q4.63,1.32,5.53,4.38t-1.7,9.46l-11.2,27.73H389.84l11.82-29.27c.72-1.78.88-3,.48-3.59s-1.51-.92-3.31-.92h-1.2L384,87.64Zm48.39-55.21,4.72-11.69c.86-2.12,1.12-3.42.77-3.89s-1.33-.72-3-.72h-1.78L404.05,38c.23,0,.54,0,.95.05s.71,0,.9,0a6.62,6.62,0,0,0,3.41-.69,5.41,5.41,0,0,0,1.9-2.64Z"/><path class="cls-1" d="M418.22,87.64,452.66,2.39h18.79l-7.6,43.68L481.5,2.39H499L464.58,87.64H445.74l6.76-41.78L435.62,87.64Z"/><path class="cls-1" d="M500.2,19.51Q505,7.61,510.08,4.75t20.29-2.87q15.57,0,18.17,3.07t-2,14.56l-20.57,50.9q-4.74,11.75-9.88,14.79t-20.48,3q-15.51,0-18.07-3.12t2.13-14.72Zm20,.51L500.07,69.9a6.15,6.15,0,0,0-.7,3.36c.19.63.82.95,1.89.95a4.29,4.29,0,0,0,2.46-.69,4.18,4.18,0,0,0,1.52-1.93l.69-1.69L526.08,20q1-2.46.66-3.33c-.23-.58-1-.87-2.24-.87a3.62,3.62,0,0,0-2.2.69,4.29,4.29,0,0,0-1.44,1.92Z"/><path class="cls-1" d="M561,2.39h20.22L553.87,70.11a5.74,5.74,0,0,0-.65,3.25c.18.63.81,1,1.88,1a4.05,4.05,0,0,0,4-2.72l.6-1.48L587.09,2.39h20.22L579.75,70.62Q575,82.26,570,85.26t-20.49,3q-15.57,0-18.12-3.07t2.09-14.56Z"/><path class="cls-1" d="M588.67,87.64l28.77-71.2H607.1l5.67-14h40.79l-5.67,14.05H637.55l-28.77,71.2Z"/><path class="cls-1" d="M216.15,128.27l37.42-91.2A29.33,29.33,0,0,0,256,26.32q0-13.71-16.33-20.76Q227,0,210.36,0q-27.23,0-41.51,11.93Q161.71,1.19,130.4,1.19H81.75q-9.19,0-9.19,10.64,0,10.27,8.17,10.27h24.84c2.49,0,5,1.12,7.48,3.34s3.75,4.58,3.75,7.05a9.09,9.09,0,0,1-.34,2.59L32.08,241.71H83.79l20.76-50.42q35.37,0,62.26-12.23,35-15.94,49.34-50.79Zm-54.1,12.2Q154.22,159.4,110,178l55.8-136.56q7.83-19.65,24.5-19.66,13.61,0,13.61,12.25a23.55,23.55,0,0,1-1.37,7.41l-40.48,99.08ZM728,57.07a19.55,19.55,0,0,0-1.36,6.67q0,6.67,6.12,10.38a26.4,26.4,0,0,0,14,3.7A44.67,44.67,0,0,0,766.43,73q11.9-5.94,16-15.94a16.82,16.82,0,0,0,1.36-6.3A11.87,11.87,0,0,0,777.65,40a26.4,26.4,0,0,0-13.95-3.7A42.08,42.08,0,0,0,744,41.51q-11.91,5.93-16,15.56ZM991.15,173.13q-5.43,12.21-22.79,25.16-29.26,21.09-62.26,21.09h-9.87q-4.08,0-4.08-5.56a28.46,28.46,0,0,1,2.38-10.37l8.17-19.63h34q25.17,0,33.68-21.11,11.91-29.27,11.91-40.38,0-18.14-21.77-18.15H926.85q-18,0-33.68,14.83-13.95,13.35-22.12,33.36l-10.88,26.69q-8.46,20.06-9.39,33.1-11.84,5.44-21.92,5.45,30.27-23.34,30.28-47.07,0-18.16-24.5-51.15,14.29-20,18.72-30a32.24,32.24,0,0,0,2.38-11.12q0-11.86-17.36-11.86-20.42,0-32.32,28.91-5.44,13.35-5.44,25.21a30.61,30.61,0,0,0,1,8.15c-20.33,30.76-74.7,91.92-81.36,75.45a6.79,6.79,0,0,1-.13-1.32,18.34,18.34,0,0,1,1.37-5.93l31.64-77.47L715.73,96.77,675,196c-7.51,14.82-13.7,13.42-19.26,13.42-7.64,0-5.44-2.5-4.22-5.51.19-.46.36-.77.59-1.27L734.43,1.19H685.1L641.55,107.56a33.7,33.7,0,0,0-12.25-2.23q-22.8,0-42.87,20-17,17.06-27.56,43l-1,2.44c-2,4.76-3.8,9.28-5.37,13.49-.4,1.06-.79,2.1-1.17,3.14-5.37,14.54-9,24.43-17.66,24.43-6.55,0-6.52-2.38-5.16-5.75.64-1.61,2.6-7.08,3.52-9.3Q546,162.69,552.8,145.66l15-36.66h-31.3l-3.07,7.4q-8.83-12.21-25.51-12.22-22.45,0-42.87,20.37-17,17-27.56,43l-.16.41a7,7,0,0,1-4.82,3.24c-13.14,2.1-7.63-5.39-6.3-8.58,0,0,2.22-5.58,4.07-11s-.46-11.16-5.68-14.37L356.33,95l-43.4,105.73c-3.35,6.1-6.21,7.7-11.72,6.78-3.36-.56-4.09-1.55-4.09-4.76a15.94,15.94,0,0,1,1.37-5.93q13.93-34.09,20.75-51.12l15-36.66h-31.3l-3.07,7.4q-8.83-12.21-25.51-12.22-22.45,0-42.87,20.37-17,17-27.56,43L199.14,179q-9.19,22.59-9.19,36.66,0,26.67,36.07,26.66,15.3,0,27.56-11.85,1.69,11.27,12.58,11.26,14.85,0,31.27-6.64l-3.09,6.33h44.47s22-47.71,40-92.71c2.47-6.19,5.1-9.27,7.82-9.27a9,9,0,0,1,5.44,2q2.73,2,2.73,4.63a4.58,4.58,0,0,1-.34,1.86l-4.06,8.67c-1,2.43-2.15,4.18-3.74,8.78C382,178.7,378.5,193,412.44,191a83.69,83.69,0,0,0,16.63-2.35q-5.54,16-5.56,27,0,26.67,36.07,26.66,15.3,0,27.56-11.85,1.69,11.27,12.58,11.26c14.56,0,30.27-4.85,47.12-14.41q6.36,15.87,34.15,15.89,11.22,0,24.5-11.11.68,10.23,15.65,10.22c15.16,0,31.58-5.13,49.24-15.26a25.9,25.9,0,0,0,4.18,7.44,18,18,0,0,0,14.63,7.23q23.82,0,51.72-17.06a143.65,143.65,0,0,0,16-11.05q4.13,28.08,44.4,28.11,26.93,0,53.2-12.07,8,12.06,32.89,12.07h25.85q20.09,0,48-16.31,30.27-17.81,38.78-38.92v-.38l-8.85-13Zm-67.7-40q2.71-7,9.87-7c3.85,0,5.78,1.49,5.78,4.45a11.41,11.41,0,0,1-.34,2.22l-12.59,30.39H910.86l12.59-30Zm-645.72-.35-29.6,72.64q-5.79,14.09-12.93,14.08-4.08,0-4.08-5.19a29.17,29.17,0,0,1,2.38-10.75l28.92-70.41q2.73-7,10.21-7,5.78,0,5.78,4.45a5.94,5.94,0,0,1-.68,2.22Zm233.56,0-29.6,72.64q-5.79,14.09-12.93,14.08-4.08,0-4.08-5.19a29.17,29.17,0,0,1,2.38-10.75L496,133.12q2.73-7,10.21-7,5.78,0,5.78,4.45a6.14,6.14,0,0,1-.68,2.22Zm88.07,77.83q-4.08,10-10.55,10-3.73,0-3.74-4.44a21.62,21.62,0,0,1,2-8.16l29.93-73.75q2.73-6.66,10.21-6.67c2.5,0,4.19.75,5.11,2.23l-33,80.79Zm209.76-20q-7.82,18.91-24.15,18.9-5.44,0-5.45-10.74a51.14,51.14,0,0,1,1.37-11.49q18.71-23.34,28.23-34.84,4.08,5.94,4.09,17.05a55.4,55.4,0,0,1-4.09,21.12Zm17-95.27a15.09,15.09,0,0,1,1-5.56,6.13,6.13,0,0,1,6.12-4.07c1.59,0,2.38.49,2.38,1.48q0,2.23-9.18,12.6a34.37,34.37,0,0,1-.34-4.45Z"/><polygon class="cls-1" points="325.68 320.25 0 320.25 3.33 312.11 329 312.11 325.68 320.25"/><path class="cls-1" d="M403,285.63H388.71l-24.89,61.61h9.84l10.44-25.85h4.23L386,347.24h10.29l1.82-27.81a23.38,23.38,0,0,0,8.17-6.09,33.89,33.89,0,0,0,5.41-9.2c2.75-6.83,3.07-11.66,1-14.77C411,286.89,407.72,285.63,403,285.63Zm.37,14a34.12,34.12,0,0,1-1.35,4,38.15,38.15,0,0,1-1.86,4,12.26,12.26,0,0,1-2.07,2.81,7.71,7.71,0,0,1-2.64,1.71,10.16,10.16,0,0,1-3.71.6h-4.13l7.19-17.78H399a7.87,7.87,0,0,1,3.35.54,2.15,2.15,0,0,1,1.23,1.47A5.66,5.66,0,0,1,403.39,299.59Z"/><polygon class="cls-1" points="421.28 347.24 448.29 347.24 452.23 337.48 435.06 337.48 441.8 320.8 456.77 320.8 460.5 311.56 445.54 311.56 452.28 294.88 469.44 294.88 473.18 285.63 446.17 285.63 421.28 347.24"/><polygon class="cls-1" points="529.65 285.63 506.39 316.69 508.14 285.63 498.88 285.63 473.98 347.24 483.83 347.24 497.73 312.82 495.91 336.44 501.1 336.44 518.17 313.19 504.41 347.24 514.25 347.24 539.14 285.63 529.65 285.63"/><path class="cls-1" d="M538.41,347.24h10l7.8-13H567l-2.71,13h9.8l11.13-61.61h-8.18ZM561.65,325l11.21-18.76L568.92,325Z"/><path class="cls-1" d="M643.08,286.37a12,12,0,0,0-5.68-1.25,19.74,19.74,0,0,0-7.28,1.36,23.26,23.26,0,0,0-6.2,3.61,27,27,0,0,0-5,5.37,31.83,31.83,0,0,0-3.6,6.57c-1.57,3.86-2.23,7.14-2,9.74s2.08,4.9,5.36,6.51l5.17,2.55a11.2,11.2,0,0,1,2,1.21,1.89,1.89,0,0,1,.72,1.21,5,5,0,0,1-.26,2.21c-.29,1-.76,2.3-1.39,3.86-.53,1.32-1.09,2.56-1.66,3.69a11.18,11.18,0,0,1-1.87,2.72,7,7,0,0,1-2.41,1.66,8.76,8.76,0,0,1-3.48.6c-1.94,0-3.1-.52-3.43-1.54a5.63,5.63,0,0,1,.32-3.92l1.4-3.47H604l-1.44,3.57a14.73,14.73,0,0,0-1.19,5.92,9.73,9.73,0,0,0,1.34,4.82,8.63,8.63,0,0,0,3.69,3.22,12.89,12.89,0,0,0,5.65,1.16,21.19,21.19,0,0,0,7.81-1.4,21.8,21.8,0,0,0,6.28-3.79,26.44,26.44,0,0,0,4.87-5.73,43.78,43.78,0,0,0,3.68-7.19,53.59,53.59,0,0,0,2.07-6,13.81,13.81,0,0,0,.55-4.79,6.87,6.87,0,0,0-1.46-3.77,10.23,10.23,0,0,0-3.83-2.75l-5.56-2.64a7.55,7.55,0,0,1-2-1.25,2.25,2.25,0,0,1-.7-1.27,4.38,4.38,0,0,1,.21-1.88c.24-.8.6-1.8,1.07-3a23.15,23.15,0,0,1,1.41-2.87,11.59,11.59,0,0,1,1.8-2.35,8.47,8.47,0,0,1,2.34-1.64,6.86,6.86,0,0,1,3-.62c2.89,0,3.21,1.32,3.32,1.75a8,8,0,0,1-.66,4.81l-1.09,2.7H645l1.85-4.58a13.15,13.15,0,0,0,1-5.19,9.5,9.5,0,0,0-1.24-4.64A8.81,8.81,0,0,0,643.08,286.37Z"/><polygon class="cls-1" points="674.65 285.63 670.91 294.88 680.94 294.88 659.78 347.24 669.63 347.24 690.78 294.88 700.81 294.88 704.55 285.63 674.65 285.63"/><polygon class="cls-1" points="703.56 347.24 730.57 347.24 734.51 337.48 717.34 337.48 724.08 320.8 739.04 320.8 742.78 311.56 727.82 311.56 734.55 294.88 751.72 294.88 755.46 285.63 728.45 285.63 703.56 347.24"/><path class="cls-1" d="M795.46,285.63H781.15l-24.89,61.61h9.84l10.44-25.85h4.23l-2.37,25.85h10.28l1.83-27.81a23.48,23.48,0,0,0,8.17-6.09,34,34,0,0,0,5.4-9.2c2.76-6.83,3.08-11.66,1-14.77C803.39,286.89,800.16,285.63,795.46,285.63Zm.37,14a32.55,32.55,0,0,1-1.36,4,39.06,39.06,0,0,1-1.85,4,12.07,12.07,0,0,1-2.08,2.81,7.62,7.62,0,0,1-2.64,1.71,10.06,10.06,0,0,1-3.7.6h-4.13l7.18-17.78h4.14a7.87,7.87,0,0,1,3.35.54,2.14,2.14,0,0,1,1.22,1.47A5.53,5.53,0,0,1,795.83,299.59Z"/><polygon class="cls-1" points="813.72 347.24 840.73 347.24 844.67 337.48 827.5 337.48 834.24 320.8 849.2 320.8 852.94 311.56 837.98 311.56 844.71 294.88 861.88 294.88 865.62 285.63 838.61 285.63 813.72 347.24"/><path class="cls-1" d="M914.63,290c-1.59-2.93-5-4.41-10.12-4.41h-13.2l-24.89,61.61H879.3a23.49,23.49,0,0,0,13.8-4.14c3.91-2.75,7.06-7,9.38-12.78L913.91,302C916,297,916.2,292.92,914.63,290Zm-25.86,46.24a8.66,8.66,0,0,1-5.58,1.71H880l17.42-43.11h3.63c2.27,0,3.61.53,4,1.58s.13,2.9-.78,5.15l-11.78,29.15A13.3,13.3,0,0,1,888.77,336.28Z"/></g></g></svg>