<?xml version="1.0" encoding="UTF-8"?>
<svg width="500px" height="267px" viewBox="0 0 500 267" version="1.1" xmlns="http://www.w3.org/2000/svg" xmlns:xlink="http://www.w3.org/1999/xlink">
    <!-- Generator: Sketch 57.1 (83088) - https://sketch.com -->
    <title>Group 75</title>
    <desc>Created with Sketch.</desc>
    <defs>
        <polygon id="path-1" points="0.802234615 0.994071429 20.6601962 0.994071429 20.6601962 30.75 0.802234615 30.75"></polygon>
    </defs>
    <g id="Page-1" stroke="none" stroke-width="1" fill="none" fill-rule="evenodd">
        <g id="Group-75">
            <polygon id="Fill-1" fill="#FFFFFF" points="484.802956 156 486.182266 155.995165 486.187192 151.218372 487.995074 151.203868 488 150 483 150.014504 483.004926 151.218372 484.802956 151.218372"></polygon>
            <polygon id="Fill-2" fill="#FFFFFF" points="490.289538 151.94686 491.948905 154.570048 492.060827 154.574879 493.715328 151.942029 493.715328 155.985507 494.995134 155.975845 495 150 493.603406 150 492.021898 152.531401 490.450122 150.009662 489.004866 150.014493 489 156 490.294404 155.995169"></polygon>
            <g id="Group-74">
                <g id="Group-5" fill="#FFFFFF">
                    <path d="M53.5836731,0.372589286 L55.7654423,2.045625 C58.8739808,4.41776786 67.9872115,10.584375 72.7706923,10.584375 L72.7706923,10.584375 L106.515712,10.584375 C117.588673,10.584375 127.054269,14.1184821 133.913327,20.810625 L133.913327,20.810625 L171.645385,22.3534821 L169.058154,85.8179464 L181.236481,85.6684821 L204.275385,19.2725893 L234.670519,19.2725893 L252.423942,69.8252679 L253.032135,19.9427679 L286.728885,19.9427679 L291.555808,30.1352679 L291.439962,20.236875 L320.145673,18.110625 L320.295308,15.2611607 L393.336308,15.2611607 L393.587308,24.6822321 C399.201019,21.4615179 405.978019,19.6052679 413.783154,19.1616964 C415.245712,19.0797321 416.703442,19.0363393 418.122558,19.0363393 C430.696692,19.0363393 440.345712,22.4209821 448.498385,29.686875 L448.498385,29.686875 L456.110442,36.4947321 L439.694077,54.8740179 C441.813096,55.9733036 443.714904,57.2750893 445.385019,58.7504464 C451.751731,64.2758036 455.149885,72.178125 455.767731,82.9009821 C455.946327,86.0011607 455.724288,89.0386607 455.116096,91.9797321 C457.302692,91.5216964 459.334827,91.2902679 461.202846,91.2902679 C462.385442,91.2902679 463.524596,91.3866964 464.572038,91.5699107 L464.572038,91.5699107 L469.220365,92.3895536 L465.339519,95.0654464 C465.267115,95.1088393 458.770077,99.6747321 457.592308,105.725625 C461.704846,105.928125 470.832558,106.718839 475.982885,109.655089 L475.982885,109.655089 L481.866904,113.010804 L475.094731,113.261518 C475.003019,113.261518 466.763462,113.666518 463.582519,119.336518 C466.391788,119.958482 468.979019,120.773304 470.900135,121.655625 C471.349038,121.862946 471.793115,122.075089 472.246846,122.287232 C476.904827,124.071161 481.0415,126.612054 484.898212,130.044911 L484.898212,130.044911 L492.39925,136.722589 L480.0375,150.564911 C478.212923,152.710446 476.822769,154.325625 475.905654,155.381518 C478.294981,156.808661 480.452615,158.515446 482.344769,160.468125 C488.38325,166.051339 491.612462,173.866875 492.215827,184.367946 C492.809538,194.825625 489.001096,204.391339 481.485577,211.305268 C475.659481,216.661875 467.791596,220.263482 458.726635,221.714732 C454.392058,222.515089 449.743731,222.924911 444.965077,222.924911 C442.541962,222.924911 440.099538,222.688661 437.744,222.462054 L437.744,222.462054 L437.604019,222.447589 C433.983827,222.100446 428.596981,221.290446 423.224615,218.315625 L423.224615,218.315625 L367.439865,218.315625 L367.406077,221.656875 L326.333788,221.656875 L326.188981,214.096875 C319.474731,218.166161 312.712212,218.802589 309.135462,218.802589 L309.135462,218.802589 L185.889635,219.077411 L185.937904,215.538482 C181.03375,218.735089 175.188346,220.861339 168.507885,221.869018 C166.181308,222.220982 163.787154,222.394554 161.393,222.394554 C160.20075,222.394554 158.94575,222.336696 157.56525,222.225804 C155.62,222.187232 149.094,221.753304 141.930846,217.929911 C140.270385,217.047589 138.619577,215.972411 137.046,214.747768 L137.046,214.747768 L136.592269,219.101518 L62.0983654,219.265446 L61.3695,190.746696 C59.3566731,191.185446 57.6189808,191.440982 55.3213654,191.440982 C46.3770769,191.440982 39.8028077,188.967589 34.6428269,183.664018 L34.6428269,183.664018 L29.3476923,178.210982 L18.4291923,178.210982 L1.42108547e-13,124.215804 L49.1766923,124.215804 C45.1413846,119.047232 36.9935385,118.044375 36.9018269,118.034732 L36.9018269,118.034732 L31.0515962,117.359732 L36.1633077,114.437946 C41.9507885,111.144911 52.3335,110.122768 56.7163462,109.828661 C55.5434038,102.856875 48.0665,97.6111607 47.9892692,97.5533036 L47.9892692,97.5533036 L44.1180769,94.8774107 L48.7519231,94.0674107 C49.9200385,93.8649107 51.1846923,93.7588393 52.5024423,93.7588393 C56.53775,93.7588393 60.6840769,94.7183036 64.0146538,95.7741964 L64.0146538,95.7741964 L62.8224038,40.6170536 C54.8483269,37.4541964 50.5716731,30.0388393 50.4365192,19.0797321 C50.3303269,10.7290179 52.64725,3.30401786 52.7486154,2.99544643 L52.7486154,2.99544643 L53.5836731,0.372589286 Z M468.058042,131.255571 C463.699331,129.249857 449.696427,126.202714 437.160908,131.781107 C437.136773,131.92575 437.098158,132.041464 437.040235,132.065571 C437.484312,132.378964 437.913908,132.774321 438.256619,133.193786 C438.541408,133.540929 438.937215,133.810929 439.188215,134.167714 C439.33785,134.370214 439.584023,134.635393 439.670908,134.862 C439.738485,134.958429 439.786754,135.132 439.907427,135.324857 C440.129465,135.691286 440.158427,136.1445 440.414254,136.496464 C440.578369,136.674857 440.694215,136.944857 440.771446,137.176286 C440.824542,137.398071 441.118985,137.480036 441.210696,137.658429 C441.312062,137.846464 441.4086,138.0345 441.563062,138.174321 C441.703042,138.352714 442.021619,138.487714 442.200215,138.627536 C442.528446,138.854143 442.813235,139.085571 443.180081,139.259143 C443.450388,139.3845 443.686908,139.558071 443.889638,139.779857 C444.23235,140.107714 444.768138,140.170393 445.178427,140.392179 C445.588715,140.613964 445.830062,140.985214 446.182427,141.269679 C446.529965,141.558964 446.983696,141.655393 447.360196,141.901286 C447.640158,142.089321 447.862196,142.282179 448.156638,142.45575 C448.330408,142.537714 448.600715,142.682357 448.629677,142.889679 C448.6876,143.106643 448.620023,143.2995 448.504177,143.482714 C448.301446,143.371821 448.089062,143.289857 447.87185,143.212714 C447.587062,143.106643 447.302273,143.217536 447.027138,143.072893 C446.732696,142.913786 446.414119,142.807714 446.119677,142.648607 C445.815581,142.484679 445.632158,142.166464 445.347369,142.041107 C445.115677,141.944679 444.999831,141.71325 444.7971,141.689143 C444.415773,141.756643 444.439908,141.963964 444.266138,142.258071 C444.073062,142.566643 443.812408,142.706464 443.788273,143.097 C443.768965,143.439321 443.638638,143.723786 443.522792,144.037179 C443.373158,144.509679 443.406946,144.987 443.098023,145.401643 C442.982177,145.56075 442.822888,145.657179 442.707042,145.797 C442.470523,145.970571 442.402946,146.322536 442.253312,146.568429 C442.084369,146.848071 441.843023,147.084321 441.548581,147.224143 C441.268619,147.3495 441.017619,147.696643 440.737658,147.870214 C440.385292,148.087179 440.037754,148.308964 439.743312,148.607893 C439.444042,148.902 439.2751,149.2395 439.067542,149.61075 C438.999965,149.181643 438.840677,148.709143 439.072369,148.308964 C439.21235,148.063071 439.352331,147.648429 439.632292,147.527893 C439.830196,147.445929 440.129465,147.441107 440.245312,147.224143 C440.385292,146.958964 440.887292,145.690929 441.201042,145.768071 C441.674081,145.883786 441.963696,145.040036 442.137465,144.692893 L442.137465,144.692893 L442.197049,144.572627 C442.290962,144.374679 442.414531,144.054536 442.229177,143.950393 C441.958869,143.80575 441.978177,143.7045 441.789927,143.477893 C441.514792,143.121107 442.002312,142.870393 442.272619,142.672714 C442.668427,142.378607 442.996658,141.602357 443.069062,141.120214 C443.122158,140.782714 442.219523,140.353607 441.954042,140.223429 C441.384465,139.953429 440.896946,139.490571 440.365985,139.143429 C439.926735,138.854143 439.617812,138.400929 439.497138,137.889857 C439.405427,137.600571 439.139946,137.132893 438.975831,136.882179 C438.657254,136.563964 438.681388,136.24575 438.391773,135.922714 C438.227658,135.734679 437.928388,135.850393 437.725658,135.662357 C437.619465,135.565929 437.358812,135.156107 437.315369,135.035571 C437.199523,134.789679 436.668562,134.293071 436.432042,134.201464 C436.301715,134.148429 434.921215,134.008607 435.041888,133.738607 C435.138427,133.521643 434.366119,133.531286 433.902735,133.458964 C433.198004,133.873607 432.4981,134.312357 431.812677,134.789679 C428.100773,137.354679 426.247235,139.456821 424.224754,143.058429 C421.526504,147.85575 420.821773,153.376286 421.429965,158.887179 C422.042985,164.39325 424.094427,169.904143 428.3566,173.621464 C431.412042,176.292536 441.196215,180.472714 454.026177,180.448607 C455.836273,180.448607 457.810485,180.733071 459.374408,181.745571 C461.546523,183.148607 462.120927,186.658607 461.165196,188.924679 C460.643888,190.168607 459.596446,191.214857 458.399369,191.783786 C454.446119,193.673786 450.174292,193.779857 445.878331,193.437536 C441.775446,193.104857 437.551888,192.227357 434.202004,189.720214 C433.839985,189.450214 433.473138,189.170571 433.120773,188.881286 C432.782888,188.611286 432.768408,188.461821 432.473965,188.789679 C432.039542,189.276643 420.38735,202.26075 420.078427,202.603071 C419.701927,203.017714 419.5716,202.983964 420.044638,203.422714 C421.425138,204.671464 422.853908,205.872 424.446792,206.836286 C429.17235,209.695393 434.602638,211.787893 440.148773,212.323071 C446.718215,212.9595 453.239388,212.612357 459.7316,211.276821 C462.550523,210.693429 465.301869,209.917179 467.855312,208.567179 C467.8891,208.547893 469.047562,207.887357 470.075696,207.299143 C469.83435,206.98575 469.385446,206.98575 469.042735,206.845929 C468.082177,206.532536 467.256773,206.17575 467.541562,205.018607 C467.599485,204.763071 467.802215,204.565393 467.840831,204.329143 C467.860138,204.179679 467.903581,204.030214 467.942196,203.890393 C468.033908,203.61075 468.675888,203.311821 468.637273,203.13825 C468.560042,202.747714 468.280081,202.501821 468.280081,202.087179 C468.284908,201.11325 466.711331,200.616643 466.614792,200.1345 C466.590658,200.013964 466.392754,200.158607 466.272081,200.018786 C466.0066,199.917536 466.117619,200.004321 465.958331,199.662 C465.311523,198.360214 465.465985,196.92825 465.678369,195.525214 C465.953504,195.978429 466.146581,196.38825 466.354138,196.875214 C466.576177,197.448964 466.402408,198.21075 466.894754,198.688071 C467.029908,198.837536 467.309869,198.852 467.488465,198.924321 C467.6381,198.982179 467.715331,199.107536 467.845658,199.170214 C468.173888,199.343786 468.318696,199.464321 468.550388,199.739143 C468.728985,199.951286 468.994465,200.071821 469.110312,200.332179 C469.139273,200.37075 469.274427,200.520214 469.375792,200.635929 C469.573696,200.852893 469.626792,201.253071 469.872965,201.412179 C470.109485,201.600214 470.355658,201.768964 470.582523,201.971464 C471.272773,202.574143 470.432888,203.080393 470.119138,203.586643 C469.829523,204.054321 469.593004,204.565393 469.279254,205.008964 C469.202023,205.110214 469.153754,205.529679 469.076523,205.529679 C468.994465,205.529679 469.670235,205.563429 469.868138,205.582714 L469.868138,205.582714 L470.019738,205.601378 C470.436668,205.666217 470.942259,205.851707 471.232531,206.160317 L471.232531,206.160317 L471.303006,206.248464 C471.289969,206.227128 471.292684,206.229388 471.326006,206.276464 L471.326006,206.276464 L471.306,206.251589 C471.320137,206.271877 471.331149,206.287396 471.336805,206.294704 L471.340397,206.298235 L471.396463,206.387893 L471.396463,206.387893 L471.46585,206.493964 C471.572042,206.426464 471.634792,206.383071 471.634792,206.37825 C471.620312,206.354143 472.006465,206.103429 472.088523,206.060036 C475.351523,203.774679 478.11735,200.790214 479.927446,197.236821 C482.490542,192.20325 482.813946,186.629679 482.046465,181.118786 C481.472062,177.010929 480.284638,172.932 477.721542,169.59075 C475.0426,166.104857 471.176235,163.689321 467.0106,162.377893 C463.091138,161.15325 458.780696,160.786821 454.7116,160.463786 C452.162985,160.256464 449.619196,160.015393 447.075408,159.793607 C445.250831,159.6345 443.252485,158.414679 442.422254,156.760929 C441.258965,154.441821 442.345023,151.621286 444.227523,150.035036 C446.361023,148.241464 449.112369,147.947357 451.786485,147.797893 C454.784004,147.633964 457.834619,147.725571 460.696985,148.709143 C462.782215,149.427536 464.5006,150.618429 466.136927,152.064857 C468.83035,149.027357 479.000677,137.880214 478.648312,137.581286 C475.48185,134.886107 471.827869,132.996107 468.058042,131.255571 Z M163.726817,133.245375 C161.13476,133.091089 159.435683,133.303232 159.435683,133.303232 C158.335144,133.351446 135.581029,133.867339 131.584337,154.233054 C131.724317,154.204125 131.849817,154.194482 131.936702,154.189661 C131.912567,154.300554 131.883606,154.411446 131.859471,154.527161 C131.941529,154.411446 131.951183,154.348768 132.08151,154.305375 C132.115298,154.556089 132.59799,154.652518 132.752452,154.874304 C132.931048,155.139482 133.02276,155.549304 132.955183,155.853054 C132.824856,156.344839 132.776587,156.725732 132.863471,157.222339 C132.926221,157.569482 133.254452,157.690018 133.326856,158.032339 L133.326856,158.032339 L133.323839,158.013656 C133.324442,158.013054 133.326856,158.020286 133.331683,158.041982 C133.360644,158.268589 133.408913,158.895375 133.249625,159.093054 C133.051721,159.338946 132.675221,159.580018 132.612471,159.903054 C132.573856,160.110375 132.467663,160.095911 132.289067,160.115196 C132.298721,160.120018 132.250452,159.739125 132.245625,159.724661 C132.14426,159.454661 131.415394,159.189482 131.01476,159.093054 C130.980971,159.903054 130.976144,160.741982 130.990625,161.605018 C131.005106,161.831625 132.858644,185.933946 133.244798,188.137339 C137.262343,211.025625 156.311343,211.812297 157.828835,211.83861 L157.924856,211.839482 L157.958644,211.825018 L158.659886,211.886843 C161.466875,212.105631 164.293795,211.983754 166.98499,211.574304 C193.040721,207.649661 191.790548,184.429661 191.795375,183.865554 C191.795375,181.961089 189.401221,158.365018 189.159875,156.986089 C186.239587,140.005018 175.12801,135.034125 167.351837,133.669661 C166.700202,133.896268 165.913413,134.132518 165.546567,134.315732 C165.363144,134.407339 164.97699,134.402518 164.85149,134.576089 C164.735644,134.740018 164.576356,134.812339 164.431548,134.937696 C164.180548,135.154661 163.775087,135.453589 163.446856,135.525911 C163.002779,135.617518 162.732471,135.660911 162.70351,136.167161 C162.664894,136.842161 162.833837,137.425554 162.616625,138.086089 C162.597317,138.148768 162.172548,138.823768 162.114625,138.818946 C161.660894,138.809304 161.207163,139.132339 160.782394,139.276982 C160.560356,139.354125 160.434856,139.600018 160.212817,139.696446 C160.01974,139.773589 159.802529,139.802518 159.614279,139.894125 C159.421202,140.810196 159.035048,141.861268 159.073663,142.791804 C158.51374,142.724304 158.431683,143.683768 158.320663,144.079125 C158.219298,144.416625 158.031048,144.749304 157.920029,145.091625 C157.80901,145.424304 157.99726,145.925732 157.755913,146.200554 C157.548356,146.441625 157.895894,146.764661 157.765567,147.034661 C157.669029,147.237161 157.69799,147.497518 157.69799,147.714482 C157.69799,147.757875 157.403548,147.878411 157.331144,148.032696 C157.292529,148.124304 157.075317,148.095375 157.012567,148.143589 C156.872587,148.095375 156.698817,148.259304 156.534702,148.331625 C156.346452,148.408768 156.385067,148.563054 156.322317,148.611268 C156.201644,148.693232 156.061663,148.654661 155.931337,148.765554 C155.858933,148.837875 155.183163,148.717339 154.965952,148.688411 C154.92251,148.524482 155.31349,148.346089 155.458298,148.182161 C155.680337,147.945911 155.955471,147.815732 156.17751,147.574661 C156.389894,147.352875 156.708471,146.962339 156.674683,146.615196 C156.61676,146.157161 156.529875,145.511089 156.727779,145.067518 C156.93051,144.633589 156.780875,144.252696 156.858106,143.789839 C156.920856,143.404125 157.11876,142.917161 157.30701,142.565196 C157.57249,142.078232 157.543529,141.697339 157.500087,141.147696 C157.456644,140.593232 157.80901,140.275018 158.079317,139.841089 C158.484779,139.190196 158.706817,138.438054 159.590144,138.254839 C159.976298,138.172875 160.13076,138.090911 160.39624,137.830554 C160.50726,137.729304 160.618279,137.656982 160.748606,137.579839 C160.859625,137.468946 160.753433,137.160375 160.763087,136.991625 C160.777567,136.302161 161.115452,135.313768 161.757433,134.961804 C162.066356,134.788232 161.95051,134.923232 162.143587,134.643589 C162.288394,134.441089 162.486298,134.301268 162.679375,134.146982 C162.82901,134.031268 163.33101,133.592518 163.726817,133.245375 Z M358.954617,125.289536 L336.311521,127.502571 L337.832002,211.429179 L357.887867,211.429179 L358.660175,149.126679 L358.558261,149.142534 C358.358148,149.19103 358.184378,149.325046 358.109906,149.271321 C357.926483,149.141143 357.68031,149.522036 357.530675,149.599179 C356.932137,150.023464 356.449444,150.037929 355.759194,149.854714 C355.710925,149.835429 355.595079,149.912571 355.54681,149.883643 C355.503367,149.849893 355.517848,149.729357 355.474406,149.690786 C355.368213,149.449714 355.04481,149.256857 354.861387,149.073643 C354.60556,148.818107 353.688444,147.955071 353.620867,147.95025 C353.558117,147.95025 351.188098,148.379357 350.801944,148.533643 C350.65231,148.191321 349.778637,148.326321 349.484194,148.374536 C348.953233,148.470964 348.316079,148.273286 347.818906,148.533643 C347.292771,148.803643 346.621829,149.194179 346.013637,149.059179 C345.796425,149.015786 345.699887,149.136321 345.511637,149.1315 C345.400617,149.126679 345.463367,148.880786 345.222021,149.049536 C345.217194,148.712036 344.62831,148.413107 344.372483,148.244357 C344.295252,148.191321 344.295252,148.384179 344.208367,148.258821 C344.160098,148.1865 344.121483,148.109357 344.044252,148.065964 C343.860829,147.974357 343.658098,147.897214 343.551906,147.742929 C343.856002,147.598286 343.667752,147.352393 343.426406,147.289714 C344.367656,146.942571 345.284771,148.384179 346.226021,147.858643 C346.631483,147.632036 347.191406,147.294536 347.674098,147.309 C348.03129,147.323464 348.234021,147.217393 348.557425,147.063107 C349.276637,146.715964 350.019983,147.034179 350.744021,146.875071 C351.163963,146.817214 351.477713,146.484536 351.878348,146.378464 C352.254848,146.277214 352.650656,146.460429 353.022329,146.518286 C353.28781,146.561679 353.582252,146.552036 353.857387,146.556857 C354.156656,146.556857 354.451098,146.807571 354.706925,146.957036 C355.035156,147.149893 355.117213,147.525964 355.406829,147.728464 C355.585425,147.844179 355.783329,147.844179 355.961925,147.964714 C356.304637,148.176857 356.31429,147.998464 356.695617,147.88275 C356.946617,147.7815 357.187963,147.757393 357.453444,147.723643 L357.453444,147.723643 L357.516956,147.719509 L357.536006,147.718464 L357.550006,147.717464 L357.530675,147.718821 L357.554,147.716589 L357.56108,147.716646 L357.564,147.715589 L357.566,147.715589 L357.602331,147.715104 C357.789255,147.705535 358.128735,147.689125 358.494811,147.676534 L358.679483,147.670607 L358.954617,125.289536 Z M132.414567,118.716482 L74.5445865,118.716482 L74.5510507,118.770875 C74.7458027,120.367295 77.5293627,140.643696 77.6579519,141.666482 C78.3530288,141.603804 104.630798,138.826661 104.683894,138.821839 L104.683894,138.821839 L84.5749327,170.951839 L84.642849,171.091218 C84.8300054,171.424038 85.196399,171.801616 85.2893173,172.046304 C85.6899519,172.316304 85.5306635,172.952732 85.8782019,173.323982 L85.8782019,173.323982 L85.8588942,173.314339 L85.9162153,173.409772 C86.1044689,173.76321 86.2564572,174.447375 86.1292019,174.784875 C86.0278365,175.030768 85.7527019,175.411661 85.7527019,175.397196 C85.7575288,175.426125 85.7189135,175.570768 85.6996058,175.590054 C85.5837596,175.720232 85.5065288,175.879339 85.4003365,176.014339 C85.1879519,176.293982 85.5837596,176.790589 85.7913173,176.964161 C86.1436827,177.248625 86.1919519,177.692196 86.5201827,177.967018 C86.6794712,178.121304 86.9208173,178.174339 87.0270096,178.381661 C87.1814712,178.651661 87.5241827,178.781839 87.7413942,178.974696 C88.1468558,179.326661 88.5474904,179.688268 88.948125,180.030589 C89.1749904,180.223446 89.4211635,180.421125 89.701125,180.527196 C89.8411058,180.570589 90.1934712,180.985232 90.2707019,180.985232 C90.4879135,181.047911 90.7389135,180.850232 90.956125,180.840589 C91.4629519,180.811661 92.0180481,181.178089 92.587625,181.240768 C93.2730481,181.327554 94.0453558,181.207018 94.7162981,181.452911 C95.5079135,181.742196 95.9664712,182.017018 96.6229327,182.590768 C96.8401442,182.778804 96.9704712,183.010232 97.2021635,183.174161 C97.3228365,183.256125 97.5110865,183.342911 97.6027981,183.453804 C97.858625,183.829875 98.2061635,183.955232 98.2640865,184.442196 C97.7476058,184.582018 97.607625,184.230054 97.1732019,184.095054 C96.8111827,184.003446 96.4829519,183.825054 96.1933365,183.603268 C95.474125,183.024696 95.1652019,182.422018 94.1708558,182.306304 C93.6205865,182.233982 92.9544712,182.267732 92.4331635,182.103804 C92.211125,182.161661 92.0759712,182.344875 91.8153173,182.344875 C91.5787981,182.344875 91.4098558,182.277375 91.1829904,182.209875 C91.0140481,182.185768 90.8885481,181.988089 90.7002981,181.949518 C90.4589519,181.906125 90.2127788,181.992911 89.9714327,181.992911 C89.4839135,182.002554 88.8902019,181.727732 88.4992212,181.428804 C88.1227212,181.144339 87.5772788,180.681482 87.3021442,180.305411 C87.0077019,179.910054 86.7760096,179.505054 86.3367596,179.268804 C85.8492404,178.979518 85.5644519,178.463625 85.1589904,178.102018 C84.7535288,177.735589 84.241875,177.263089 84.2467019,176.660411 C84.2515288,176.052911 85.2265673,175.397196 84.9562596,174.852375 C84.5845865,174.365411 83.4985288,174.886125 83.2427019,174.307554 C83.2620096,174.370232 83.2813173,174.447375 83.2668365,174.432911 C83.2282212,174.365411 83.1992596,174.302732 83.1799519,174.220768 L83.1799519,174.220768 L83.1644879,174.127888 C83.1267217,173.949429 83.0375577,173.6655 83.0254904,173.468625 L83.0254904,173.468625 L71.4746635,191.650232 L71.3877788,208.669875 L126.781548,208.669875 L129.079163,186.361125 L99.2294712,188.439161 L118.976413,157.258982 L118.837784,157.346655 C118.640073,157.450489 118.399113,157.506804 118.21376,157.572375 C118.223413,157.562732 118.233067,157.562732 118.242721,157.553089 C117.97724,157.620589 117.822779,157.504875 117.552471,157.345768 C117.581433,157.003446 117.644183,156.704518 117.793817,156.391125 C118.107567,155.716125 118.952279,154.761482 119.005375,154.857911 C118.976413,154.886839 119.024683,155.036304 119.053644,155.070054 C119.087433,155.070054 119.16949,155.098982 119.140529,154.992911 C119.193625,154.260054 120.023856,154.395054 120.48724,154.689161 C120.521029,154.640946 120.554817,154.583089 120.59826,154.544518 C120.603087,154.550946 120.606304,154.559518 120.608807,154.569161 L120.608807,154.569161 L120.622394,154.631304 L132.414567,135.919339 L132.414567,118.716482 Z M309.461279,130.162554 C309.030152,130.1274 281.795627,130.156324 276.030259,130.161726 L275.001875,130.162554 C275.02601,130.832732 276.102413,207.020946 276.126548,208.534875 L276.126548,208.534875 L276.209513,208.534675 C278.095741,208.528329 306.469527,208.37288 309.784678,208.366338 L309.784678,208.366338 L309.963279,208.366125 C316.585817,208.366125 329.57024,205.044161 331.727875,187.817196 C333.14699,176.482018 327.209875,170.865054 323.768279,168.382018 C326.263798,166.506482 333.489702,158.295589 329.652298,145.562196 C328.469702,141.324161 325.86799,136.936661 321.243798,133.913625 L321.243798,133.913625 L321.178924,133.975841 C321.095515,134.063475 321.027552,134.165304 321.011006,134.227464 L321.011006,134.227464 L320.879023,134.44415 C320.128361,135.5586 318.740613,135.989959 317.536721,136.425589 C317.169875,136.550946 317.179529,137.095768 317.179529,137.404339 C317.179529,137.688804 316.981625,137.915411 316.976798,138.146839 C316.967144,138.614518 316.889913,139.033982 317.044375,139.472732 C316.561683,139.361839 316.609952,139.877732 316.334817,140.152554 C316.06451,140.417732 315.794202,140.822732 315.408048,140.928804 C315.243933,141.266304 314.717798,141.338625 314.481279,141.627911 C314.264067,141.989518 314.157875,142.360768 314.186837,142.780232 C314.230279,143.387732 314.080644,143.908446 314.066163,144.501482 C314.05651,145.012554 314.317163,145.475411 314.519894,145.923804 C314.674356,146.536125 314.413702,146.979696 314.090298,147.471482 C313.979279,146.897732 313.950317,146.280589 313.607606,145.793625 C313.284202,145.316304 313.009067,144.781125 312.922183,144.192911 C312.888394,143.922911 312.898048,143.590232 312.898048,143.310589 C312.898048,143.074339 313.047683,142.900768 312.970452,142.664518 C312.81599,142.216125 312.516721,141.213268 312.92701,140.808268 C312.61326,140.870946 312.289856,140.798625 311.976106,140.808268 C311.517548,140.837196 311.227933,140.543089 310.822471,140.538268 C310.47976,140.538268 310.219106,140.567196 309.924663,140.716661 C309.813644,140.769696 309.596433,140.774518 309.485413,140.750411 C309.277856,140.750411 309.002721,140.475589 308.775856,140.427375 C308.563471,140.379161 308.331779,140.345411 308.119394,140.311661 C307.79599,140.268268 307.491894,140.027196 307.211933,139.872911 C307.752548,139.747554 308.264202,139.492018 308.814471,139.492018 C309.572298,139.569161 310.325298,139.569161 311.083125,139.665589 C311.792683,139.762018 312.492587,139.376304 313.226279,139.429339 C313.655875,139.463089 313.829644,139.342554 314.215798,139.168982 C314.452317,139.058089 315.041202,139.043625 315.26324,138.903804 C315.519067,138.739875 315.461144,138.672375 315.480452,138.416839 C315.490106,138.291482 315.393567,138.305946 315.393567,138.199875 C315.393567,138.031125 315.543202,137.915411 315.620433,137.785232 C315.81351,137.476661 315.81351,137.293446 315.919702,136.960768 C315.996933,136.700411 316.175529,136.517196 316.175529,136.232732 C316.228625,135.552911 316.672702,135.249161 317.329163,135.128625 C317.88426,135.017732 318.21249,134.776661 318.719317,134.578982 C318.873779,134.521125 319.071683,134.612732 319.211663,134.497018 C319.424048,134.386125 319.510933,134.231839 319.621952,134.019696 C319.675048,133.884696 319.660567,133.696661 319.665394,133.547196 C319.675048,133.407375 319.71849,133.209696 319.742625,133.021661 C316.976798,131.531839 313.588298,130.490411 309.461279,130.162554 Z M265.780038,123.1305 L247.838365,123.1305 L233.130731,154.9905 L233.137971,154.995321 C233.198308,155.144786 233.338288,155.255679 233.449308,155.371393 C233.724442,155.655857 233.956135,155.998179 234.10863,156.355857 L234.10863,156.355857 L234.109006,156.355464 L234.110596,156.359786 L234.167819,156.465703 C234.340502,156.768498 234.511231,156.949446 234.380904,157.353 C234.284365,157.65675 234.023712,157.849607 233.792019,158.052107 C233.594115,158.2305 233.36725,158.269071 233.183827,158.457107 C233.043846,158.606571 232.850769,158.794607 232.643212,158.842821 C232.464615,158.891036 232.006058,158.7705 231.938481,158.934429 C231.846769,159.161036 231.846769,159.300857 231.841942,159.541929 C231.827462,160.024071 231.286846,160.351929 231.629558,160.641214 C231.673,160.679786 231.740577,161.137821 231.682654,161.407821 C231.682654,161.518714 232.010885,162.4155 232.073635,162.463714 C232.232923,162.564964 232.179827,162.772286 232.329462,162.883179 C232.387385,162.92175 232.247404,163.374964 232.23775,163.452107 C232.155692,163.890857 232.141212,164.189786 231.86125,164.5755 C231.595769,164.961214 231.48475,165.424071 231.219269,165.814607 C230.939308,166.209964 230.538673,166.552286 230.215269,166.913893 C230.234577,166.340143 230.176654,165.559071 230.529019,165.067286 C230.649692,164.599607 230.876558,164.315143 230.924827,163.813714 C230.958615,163.481036 230.751058,163.341214 230.577288,163.080857 C230.316635,162.733714 230.215269,162.256393 230.142865,161.851393 C230.089769,161.581393 229.949788,161.296929 229.998058,161.017286 C229.988404,160.9305 229.916,160.665321 229.935308,160.506214 C229.949788,160.110857 230.012538,159.826393 229.867731,159.450321 C229.761538,159.156214 229.553981,158.712643 229.660173,158.394429 C229.804981,157.950857 230.297327,157.9605 230.659346,157.844786 C231.069635,157.748357 231.364077,157.4205 231.774365,157.343357 C232.073635,157.2855 232.768712,157.203536 232.874904,157.063714 C233.0535,156.894964 232.652865,156.904607 232.454962,156.793714 C232.334288,156.726214 232.290846,156.663536 232.290846,156.596036 L232.290846,156.596036 L217.481846,123.328179 L198.256212,123.328179 L198.25558,123.388473 C198.223496,126.122039 197.087227,202.014857 197.001212,208.3155 C199.368755,208.228591 216.238401,208.306586 217.962395,208.314814 L218.104519,208.3155 L218.104754,208.265531 C218.112204,206.676659 218.294893,167.715866 218.302198,165.997973 L218.302198,165.997973 L218.302423,165.939964 C219.81325,168.2205 225.537981,176.879786 227.681135,180.042643 L227.681135,180.042643 L228.226538,180.043442 C229.818257,180.045851 234.509762,180.053124 237.185346,180.057107 C239.719481,176.619429 246.385462,167.574429 247.461865,166.09425 L247.461865,166.09425 L247.461036,166.766313 C247.455144,172.427257 247.437489,203.849652 247.432904,208.3155 C254.711904,208.546929 262.111577,208.088893 269.240942,208.3155 L269.240942,208.3155 L267.406712,163.331571 L267.355932,163.376083 C267.294148,163.429157 267.257077,163.456929 267.257077,163.456929 C266.870923,163.833 266.291692,164.262107 265.987596,163.558179 C265.697981,162.912107 265.809,162.005679 265.881404,161.325857 C265.910365,161.075143 266.035865,160.752107 266.127577,160.520679 C266.233769,160.308536 266.37375,160.318179 266.455808,160.081929 C266.682673,160.053 266.479942,159.609429 266.726115,159.638357 C266.74301,159.482263 266.933598,159.447986 267.058589,159.454776 L267.058589,159.454776 L267.107442,159.459964 C267.132928,159.483493 267.184673,159.558321 267.242596,159.54675 L267.242596,159.54675 L265.780038,123.1305 Z M418.53526,126.989571 L367.543644,126.989571 L368.832433,208.114929 L385.924567,208.114929 L385.964278,208.13165 C386.028078,208.183786 386.079029,208.339236 386.103163,208.327736 C386.334856,208.327736 386.194875,207.632786 386.180394,207.507429 C386.136952,207.222964 386.320375,207.034929 386.286587,206.798679 C386.161087,205.872964 386.441048,205.062964 386.687221,204.759214 C386.928567,204.460286 387.150606,204.040821 387.512625,203.891357 C387.623644,203.524929 388.159433,203.423679 388.347683,203.091 C388.516625,202.710107 388.593856,202.319571 388.506971,201.919393 C388.381471,201.316714 388.473183,200.791179 388.420087,200.198143 C388.371817,199.687071 388.048413,199.267607 387.80224,198.8385 C387.589856,198.240643 387.773279,197.787429 388.03876,197.247429 C388.217356,197.801893 388.323548,198.419036 388.714529,198.862607 C389.091029,199.291714 389.443394,199.797964 389.593029,200.366893 C389.655779,200.632071 389.68474,200.959929 389.718529,201.23475 C389.742663,201.480643 389.636471,201.654214 389.728183,201.890464 C389.945394,202.44975 390.278452,203.12475 389.988837,203.73225 C391.171433,203.370643 392.267144,203.905821 393.464221,203.780464 C393.990356,203.727429 394.574413,203.524929 395.095721,203.6985 C395.322587,203.751536 395.554279,203.886536 395.776317,203.978143 C395.259837,204.166179 394.772317,204.484393 394.226875,204.537429 C393.464221,204.556714 392.720875,204.648321 391.958221,204.638679 C391.23901,204.633857 390.597029,205.106357 389.853683,205.125643 C389.428913,205.14975 389.264798,205.294393 388.902779,205.511357 C388.68074,205.646357 388.458702,205.602964 388.49249,205.684929 C388.275279,205.800643 388.10151,205.733143 387.893952,205.901893 C387.744317,206.017607 387.647779,206.176714 387.720183,206.350286 C387.773279,206.485286 387.594683,206.417786 387.575375,206.519036 C387.527106,206.639571 387.604337,206.784214 387.575375,206.919214 C387.483663,207.353143 387.213356,208.114929 387.189221,208.114929 L387.189221,208.114929 L418.78626,208.114929 L416.614144,189.899571 L388.453875,189.899571 L388.333202,178.863321 L410.614279,178.863321 L410.638413,160.657607 L388.453875,160.657607 L388.246317,145.204929 L416.372798,145.204929 L418.53526,126.989571 Z M437.353985,203.721643 C438.377292,203.721643 438.526927,204.309857 438.83585,205.090929 C438.840677,205.100571 438.840677,205.115036 438.850331,205.1295 L438.850331,205.1295 L438.938637,205.342022 C439.113841,205.762878 439.255103,206.161974 438.903427,206.600036 C438.589677,206.937536 438.309715,207.183429 437.827023,207.25575 C437.387773,207.361821 437.315369,207.067714 436.948523,206.797714 C436.591331,206.547 436.354812,206.146821 436.176215,205.751464 C435.939696,205.221107 436.021754,204.806464 436.441696,204.406286 C436.712004,204.15075 436.909908,203.721643 437.353985,203.721643 Z M432.122102,205.527758 L432.200265,205.534094 L432.285715,205.553786 L432.382447,205.593643 C432.720105,205.773897 432.870175,206.312357 432.821504,206.64825 C432.782888,206.903786 432.628427,206.855571 432.396735,206.976107 C432.218138,206.841107 432.116773,206.865214 432.020235,206.6145 C431.947831,206.421643 431.971965,206.219143 431.875427,206.031107 C431.888794,205.750723 431.885709,205.482663 432.200265,205.534094 Z M78.2757981,204.904339 C78.4543942,204.648804 79.0287981,204.590946 79.284625,204.706661 C79.2910609,204.721125 79.2958878,204.732911 79.2994633,204.742196 L79.2994633,204.742196 L79.3087596,204.769339 C79.5066635,205.198446 79.5211442,205.723982 79.1398173,206.027732 C78.9660481,206.167554 78.2468365,206.080768 78.1985673,205.844518 C78.1213365,205.511839 78.0537596,205.222554 78.2757981,204.904339 Z M154.010221,204.279482 C154.177554,204.129482 154.180892,204.189006 154.315171,204.35308 L154.315171,204.35308 L154.37224,204.419304 L154.445038,204.516267 C154.75385,204.984767 154.260316,205.217551 154.101933,205.619839 C153.923337,206.058589 153.570971,205.634304 153.474433,205.388411 C153.315144,204.988232 153.74474,204.506089 154.010221,204.279482 Z M432.313006,205.560464 L432.316282,205.561474 L432.31,205.559589 L432.313006,205.560464 Z M432.298,205.556589 L432.31,205.559589 L432.304152,205.558808 L432.298,205.556589 Z M432.297,205.556589 L432.293006,205.555464 L432.313006,205.560464 L432.298,205.556589 L432.297,205.556589 Z M432.285715,205.553786 L432.298,205.556589 L432.297,205.556589 L432.285715,205.553786 Z M78.6716058,198.660589 C79.2191599,198.488826 80.0382284,198.469616 80.365177,199.024068 L80.365177,199.024068 L80.4140058,199.123464 L80.4212458,199.141214 C80.4240462,199.148088 80.4271563,199.15558 80.4310058,199.165464 L80.4310058,199.165464 L80.4320058,199.167464 L80.4310058,199.166464 L80.4634466,199.258315 C80.5857521,199.698708 80.2837981,199.885974 79.9941827,200.184161 C79.9266058,200.256482 79.3328942,200.931482 79.3328942,200.941125 C79.0818942,200.926661 79.3522019,201.485946 78.9950096,201.514875 C78.7681442,201.538982 78.6329904,201.476304 78.4447404,201.379875 C78.0972019,201.225589 78.0730673,200.998982 77.9186058,200.709696 C77.8462019,200.536125 77.715875,200.261304 77.7737981,200.063625 C77.8365481,199.846661 78.0247981,199.716482 78.0875481,199.504339 C78.1985673,199.171661 78.280625,198.771482 78.6716058,198.660589 Z M150.258771,200.534353 L150.337932,200.540012 C150.670141,200.596438 150.489584,201.051536 150.139029,201.000911 C149.955606,200.976804 149.608067,200.808054 149.719087,200.552518 C149.822061,200.546089 149.914309,200.543946 150.011562,200.543232 L150.011562,200.543232 L150.163163,200.542875 L150.258771,200.534353 Z M150.147735,200.541375 L150.163163,200.542875 L150.13903,200.542253 C150.133272,200.541502 150.145407,200.540239 150.163163,200.542875 Z M391.181087,197.941714 C391.383817,197.719929 391.784452,197.989929 391.847202,198.231 C391.831112,198.158679 391.855247,198.253768 391.852565,198.248411 L391.852565,198.248411 L391.863629,198.286667 C391.939536,198.574907 391.993297,199.236107 391.538279,199.200107 C391.350029,199.180821 391.17626,198.968679 391.147298,198.771 C391.103856,198.53475 390.891471,198.549214 390.978356,198.303321 C391.041106,198.149036 391.055587,198.076714 391.181087,197.941714 Z M294.097183,196.515054 C294.319221,196.664518 294.671587,196.572911 294.830875,196.818804 C294.816394,196.799518 294.80674,196.780232 294.835702,196.823625 C294.842781,196.837768 294.844669,196.844132 294.843269,196.842718 L294.843269,196.842718 L294.890696,196.953759 C295.089062,197.479939 294.793225,197.816839 294.266125,198.019339 C294.217856,198.000054 293.879971,197.585411 293.86549,197.488982 C293.836529,197.296125 293.99099,197.117732 294.034433,196.939339 C294.092356,196.693446 294.324048,196.760946 294.097183,196.515054 Z M319.757106,192.060054 L319.85056,192.072216 L319.956355,192.115987 C320.263082,192.290247 320.47253,192.827477 320.548721,193.091839 L320.548721,193.091839 L320.554006,193.116464 L320.553548,193.106304 L320.578912,193.229839 C320.677176,193.775695 320.616988,194.445972 320.123952,194.750411 C319.819856,194.938446 319.819856,194.586482 319.539894,194.437018 C319.182702,194.253804 319.023413,193.858446 318.941356,193.496839 C318.77724,192.821839 318.984798,192.151661 319.757106,192.060054 L319.757106,192.060054 Z M262.9225,185.558357 C262.941808,185.317286 263.578962,184.979786 263.607923,185.322107 L263.607923,185.322107 L263.667844,185.343632 C263.836225,185.454079 263.705778,185.927854 263.718942,186.054964 L263.718942,186.054964 L263.721006,186.068464 L263.718942,186.059786 L263.749621,186.440271 C263.794203,187.201776 263.741008,187.966316 263.641712,188.730857 C263.559654,189.376929 263.062481,190.076036 263.105923,190.726929 C263.154192,191.377821 263.086615,192.168536 262.917673,192.804964 C262.710115,193.576393 262.217769,192.01425 262.23225,192.033536 C262.015038,191.792464 261.899192,191.233179 261.783346,190.919786 C261.653019,190.582286 261.686808,190.085679 261.778519,189.743357 C262.000558,188.938179 261.841269,188.108893 262.029519,187.313357 C262.082615,187.091571 262.019865,186.95175 262.222596,186.879429 C262.377058,186.81675 262.512212,186.696214 262.618404,186.575679 C262.893538,186.281571 262.883885,185.93925 262.9225,185.558357 Z M472.759465,190.968964 C472.382965,190.115571 474.135138,189.392357 474.699888,189.990214 C475.023292,190.327714 474.752985,191.084679 474.255812,191.19075 C473.792427,191.296821 473.213196,191.026821 472.759465,190.968964 Z M286.036221,188.728446 C286.441683,188.525946 286.740952,188.791125 286.96299,189.162375 C286.977471,189.191304 286.982298,189.200946 286.977471,189.196125 C287.156067,189.557732 287.329837,190.068804 286.861625,190.338804 C286.27274,190.666661 286.369279,190.430411 286.185856,189.948268 C286.036221,189.577018 285.794875,189.118982 286.036221,188.728446 Z M153.455125,160.110375 C156.278875,156.547339 162.109798,156.961982 162.109798,156.961982 C163.881279,157.140375 168.780606,158.606089 169.253644,162.680196 C169.632407,165.949728 170.98511,177.671581 171.069284,178.401004 L171.069284,178.401004 L171.073394,178.436625 C171.17476,179.540732 171.194067,180.630375 171.18924,181.686268 C171.17476,183.696804 170.706548,185.581982 169.224683,187.259839 C167.92624,188.730375 166.67124,189.646446 164.46051,190.099661 L164.46051,190.099661 L164.35943,190.124074 C163.670459,190.279362 161.544794,190.58155 160.58449,190.403411 C160.579663,190.403411 160.652067,190.408232 160.652067,190.408232 C158.880587,190.229839 157.379413,189.588589 155.921683,188.426625 C153.262048,186.310018 153.020702,183.262875 152.74074,180.037339 C152.74074,180.037339 151.558144,166.739839 151.567739,165.683946 C151.577452,163.668589 152.069798,161.860554 153.455125,160.110375 Z M307.887702,177.701839 C309.832952,177.672911 310.87074,178.781839 311.353433,179.297732 C311.826471,179.818446 312.381567,180.835768 312.598779,181.539696 C312.598779,181.568625 313.153875,183.612911 312.540856,185.536661 C311.980933,187.267554 310.108087,189.750589 307.65601,189.808446 C306.560298,189.851839 295.776952,189.630054 295.772125,189.533625 L295.772125,189.533625 L295.93624,177.788625 L295.94998,177.787272 C296.378882,177.763649 306.645789,177.708443 307.785233,177.702382 L307.785233,177.702382 Z M347.789944,186.647036 C348.341372,186.920121 347.35807,188.010798 346.817304,187.735031 L346.817304,187.735031 L346.752156,187.693286 L346.680105,187.638172 C346.230985,187.22692 347.485218,186.670095 347.789944,186.647036 Z M351.463233,184.573821 C351.73354,184.361679 352.843733,184.241143 352.602387,184.839 C352.385175,185.364536 352.438271,185.523643 351.839733,185.764714 C351.348593,185.963598 351.096755,185.895094 350.760756,185.614907 L350.760756,185.614907 L350.695374,185.558814 C350.691654,185.556493 350.663733,185.533286 350.66679,185.533286 C350.507502,185.451321 351.395656,184.631679 351.463233,184.573821 Z M471.634792,182.454321 C471.996812,182.382 471.84235,182.454321 471.953369,182.787 L471.953369,182.787 L472.08316,183.128786 C472.104076,183.185036 472.123921,183.240214 472.141619,183.29325 C472.267119,183.741643 472.392619,184.055036 471.943715,184.315393 C471.533427,184.108071 471.099004,183.7995 471.007292,183.278786 C470.954196,182.95575 471.325869,182.517 471.634792,182.454321 Z M56.2833712,144.474964 C48.2706788,144.474964 42.8838327,149.161393 42.8838327,156.147643 C42.8838327,159.329786 43.7526788,161.836929 45.4758904,163.606393 C47.1411788,165.322821 49.6222173,166.422107 52.8659096,166.889786 L52.8659096,166.889786 L57.0701596,167.468357 L57.3028637,167.50323 C58.0597586,167.630413 58.6266229,167.865906 58.9381788,168.177107 C59.2760635,168.548357 59.4353519,169.044964 59.4353519,169.748893 C59.4353519,170.34675 59.4353519,172.16925 55.163525,172.16925 C51.9681019,172.16925 49.3181212,171.354429 47.8941788,169.936929 L47.8941788,169.936929 L47.3970058,169.4355 L40.9337558,175.886571 L41.4261019,176.383179 L41.6731115,176.631963 C44.9048081,179.819239 48.9499476,181.1805 55.1104288,181.1805 C59.1843519,181.1805 62.6114673,180.090857 65.0683712,178.191214 C64.7497942,177.443893 64.5663712,176.619429 64.5518904,175.761214 C64.5277558,174.030321 65.1745635,172.400679 66.3812942,171.176036 C67.1825635,170.366036 68.1672558,169.80675 69.2436596,169.522286 C69.2388327,165.911036 68.3168904,163.268893 66.4488712,161.446393 C64.8511596,159.855321 62.4232173,158.818714 59.2133135,158.375143 L59.2133135,158.375143 L54.9994096,157.782107 L54.744857,157.7464 C53.9995608,157.623337 53.4200404,157.357339 53.0203712,156.962464 C52.5859481,156.533357 52.5425058,156.123536 52.5425058,155.930679 C52.5425058,154.681929 53.6237365,153.495857 56.0371981,153.495857 L56.0371981,153.495857 L56.6260827,153.495857 L56.8536272,153.496683 C58.6075849,153.510087 60.5700811,153.703379 62.1336019,155.2605 L62.1336019,155.2605 L62.630775,155.718536 L68.9974865,149.339786 L68.4954865,148.828714 L68.2230886,148.563078 C65.2903653,145.776121 61.4835763,144.474964 56.2833712,144.474964 Z M70.8910885,172.096446 C68.9023962,172.081982 67.3191654,173.701982 67.3529538,175.717339 C67.3819154,177.732696 69.0134154,179.376804 71.0021077,179.391268 C72.9908,179.410554 74.5740308,177.790554 74.5450692,175.775196 C74.5112808,173.764661 72.8749538,172.115732 70.8910885,172.096446 Z M205.974462,171.354429 C205.361442,170.713179 205.63175,168.799071 206.684019,169.454786 L206.684019,169.454786 C206.685736,169.460127 206.731613,169.487791 206.726006,169.482464 L206.726006,169.482464 L206.796087,169.529208 C207.334234,169.923982 206.943537,170.288609 206.770904,170.824071 C206.655058,171.166393 206.428192,171.826929 205.974462,171.354429 Z M342.037336,167.27673 L342.143576,167.302636 C342.346985,167.376991 342.500843,167.568643 342.692713,167.554179 C342.963021,168.007393 342.538252,168.836679 341.968675,168.74025 C341.650098,168.687214 340.704021,168.74025 340.636444,168.369 C340.535079,167.780786 341.466675,167.3565 341.920406,167.279357 L341.920406,167.279357 L342.037336,167.27673 Z M23.600275,132.5805 L13.2610058,132.5805 L25.2028135,168.437464 L32.5638712,168.437464 L44.5539481,132.5805 L34.1664096,132.5805 L28.9291981,150.236571 L23.600275,132.5805 Z M178.111048,157.627339 C178.188279,157.704482 178.168971,157.892518 178.241375,157.998589 C178.323433,158.109482 178.419971,158.157696 178.521337,158.239661 C178.70476,158.389125 178.984721,158.553054 179.090913,158.784482 C179.172971,158.962875 179.298471,159.358232 179.45776,159.440196 C179.77875,159.608946 179.918655,159.57836 180.239646,159.577767 L180.239646,159.577767 L180.389356,159.580018 L180.505685,159.585651 C181.045497,159.64134 180.97281,160.100129 180.96376,160.525018 C180.958933,160.713054 180.958933,160.968589 180.886529,161.146982 C180.780337,161.465196 180.736894,161.426625 180.519683,161.590554 C180.292817,161.759304 180.114221,161.523054 179.892183,161.523054 C179.631529,161.523054 179.462587,161.518232 179.22124,161.633946 C178.89301,161.797875 178.415144,161.498946 178.284817,161.185554 C178.178625,160.905911 178.033817,160.496089 177.739375,160.365911 C177.290471,160.168232 177.068433,160.047696 177.092567,159.555911 C177.107048,159.184661 177.184279,158.625375 177.522163,158.379482 C177.806952,158.162518 177.84074,157.844304 178.111048,157.627339 Z M109.99351,159.071839 C109.99351,159.071839 110.350702,159.091125 110.37001,159.298446 C110.37001,159.727554 110.143144,159.751661 109.834221,159.713089 C109.645971,159.428625 109.75699,159.221304 109.99351,159.071839 Z M180.361964,159.578809 C180.339311,159.576643 180.577949,159.578804 180.499638,159.579683 L180.499638,159.579683 L180.389356,159.580018 Z M295.698292,149.029428 C296.663101,149.035754 304.682942,149.08818 306.60738,149.095465 L306.60738,149.095465 L306.931971,149.096304 C309.934317,149.096304 311.208625,151.752911 311.406529,152.182018 C311.715452,153.180054 311.81199,154.033446 311.763721,155.045946 C311.816817,155.272554 311.343779,156.815411 311.145875,157.123982 C311.155529,157.167375 311.126567,157.268625 310.962452,157.524161 C310.812817,157.760411 310.474933,158.078625 310.474933,158.078625 C310.460452,158.073804 310.108087,158.387196 309.837779,158.599339 C309.495067,158.850054 309.007548,159.042911 308.67449,159.120054 C308.573125,159.173089 308.476587,159.226125 308.370394,159.264696 L308.370394,159.264696 L295.709375,159.496125 L295.603183,149.028804 Z M264.336788,157.054071 C264.486423,156.928714 265.360096,157.246929 265.326308,157.502464 L265.326308,157.502464 L265.411761,157.540803 C265.828725,157.802144 265.635515,158.934996 265.331135,159.098357 C265.282865,159.054964 264.911192,158.997107 264.853269,158.992286 C264.829135,158.838 264.6795,158.866929 264.554,158.818714 C264.327135,158.727107 264.080962,158.404071 263.998904,158.187107 C263.931327,157.99425 263.858923,157.767643 263.810654,157.5555 C263.728596,157.246929 264.172673,157.179429 264.336788,157.054071 Z M115.330672,156.559122 L115.399663,156.564696 C115.65549,156.632196 115.800298,156.786482 115.964413,156.945589 C116.118875,157.095054 116.15749,157.172196 115.896837,157.278268 C115.863048,157.567554 115.78099,157.750768 115.645837,158.001482 C115.534817,158.150946 115.245202,158.372732 115.056952,158.430589 C115.017854,158.703964 114.798905,158.750829 114.611234,158.616875 L114.611234,158.616875 L114.550125,158.565589 L114.469705,158.473546 C114.092386,157.969017 114.523435,157.258982 114.945933,156.950411 C115.09074,156.815411 115.206587,156.506839 115.399663,156.564696 Z M265.336533,157.500527 C265.36098,157.504114 265.417397,157.527716 265.370383,157.515368 L265.370383,157.515368 L265.326308,157.502464 Z M234.109146,156.354357 L234.109006,156.355464 C234.108808,156.353893 234.109702,156.354429 234.109006,156.355464 Z M202.706635,152.367643 C202.585962,151.991571 203.242423,152.12175 203.411365,152.12175 C203.536865,152.12175 203.647885,152.198893 203.773385,152.208536 C204.009368,152.221393 203.913544,152.31806 203.963919,152.474832 L203.963919,152.474832 L203.990596,152.536393 L204.023021,152.624384 C204.059782,152.790455 204.015535,153.040232 203.971288,153.172821 C203.845788,153.061929 203.720288,153.129429 203.561,153.076393 C203.396885,153.018536 203.396885,152.898 203.237596,152.854607 C203.097615,152.811214 202.74525,152.497821 202.706635,152.367643 Z M205.848962,149.956929 C206.00825,149.711036 206.017904,149.416929 206.148231,149.884607 C206.210981,150.111214 206.413712,150.217286 206.4475,150.463179 C206.486115,150.762107 206.326827,150.979071 206.128923,151.186393 C205.897231,151.427464 205.636577,151.745679 205.438673,151.220143 C205.438673,151.224964 205.438673,151.229786 205.433846,151.215321 L205.433846,151.215321 L205.431,151.206589 C205.293427,150.780955 205.543948,150.419148 205.779238,150.0635 Z M357.565,147.715589 L357.557,147.716589 L357.564,147.715589 L357.565,147.715589 Z M357.601364,147.714086 L357.592174,147.714714 C357.607727,147.713643 357.605403,147.713821 357.592174,147.714714 Z M291.630625,145.412732 C291.867144,145.557375 292.267779,145.441661 292.433899,145.707762 C292.421125,145.689482 292.414517,145.671482 292.441548,145.716482 C292.451202,145.735768 292.451202,145.735768 292.446375,145.730946 C292.78426,146.410768 292.393279,146.569875 291.881625,146.907375 C291.809221,146.888089 291.625798,146.603625 291.54374,146.512018 C291.437548,146.391482 291.452029,146.150411 291.456856,146.005768 C291.46651,145.755054 291.495471,145.581482 291.630625,145.412732 Z M375.454971,144.12975 C375.710798,143.917607 375.638394,143.676536 376.029375,143.821179 C376.124534,143.85424 376.294166,143.933351 376.34069,144.049402 L376.34069,144.049402 L376.352779,144.110464 L376.378856,144.11747 C376.479561,144.152275 376.830644,144.301513 376.830644,144.255107 C376.719625,144.520286 376.439663,144.303321 376.386567,144.655286 C376.343125,144.954214 376.019721,145.127786 375.971452,145.383321 C375.797683,145.368857 375.546683,145.619571 375.512894,145.74975 C375.397048,146.121 374.952971,145.778679 374.904702,145.556893 C374.755067,144.896357 374.967452,144.525107 375.454971,144.12975 Z M431.735006,145.900464 L431.740273,145.922357 L431.743491,145.934321 L431.743491,145.934321 C431.885081,146.496107 431.904388,147.330214 431.151388,147.479679 C430.605946,147.580929 430.292196,146.91075 430.166696,146.472 C430.031542,145.903071 430.055677,145.146107 430.586638,144.81825 C430.900388,144.630214 430.900388,144.982179 431.175523,145.126821 L431.175523,145.126821 L431.281159,145.192636 C431.482815,145.339369 431.626435,145.571871 431.70591,145.802678 L431.70591,145.802678 L431.734006,145.897464 L431.734,145.897589 L431.735006,145.899464 L431.735006,145.900464 Z M431.713006,145.809464 L431.717191,145.824249 L431.718,145.827589 L431.716834,145.823118 L431.713006,145.809464 Z M376.358803,144.093339 C376.369345,144.084197 376.388923,144.096231 376.376875,144.104447 L376.376875,144.104447 L376.352779,144.110464 Z M348.32609,140.704893 C348.330023,140.786679 348.322515,140.869179 348.34504,140.949536 C348.417444,141.205071 348.258156,141.099 348.108521,141.26775 C347.987848,141.388286 347.674098,141.455786 347.495502,141.455786 C347.572733,141.262929 347.40379,141.099 347.476194,140.886857 C347.538944,140.722929 347.553425,140.539714 347.649963,140.375786 C347.997502,139.763464 348.103694,140.033464 348.306425,140.578286 C348.308235,140.584313 348.309668,140.589285 348.310755,140.593786 L348.310755,140.593786 L348.312006,140.603464 L348.310498,140.599304 L348.308,140.591589 Z M410.12676,134.322964 C410.682821,134.614564 409.673013,135.701538 409.147202,135.412648 L409.147202,135.412648 L409.084144,135.369214 L409.013167,135.314624 C408.570611,134.906457 409.803566,134.3368 410.12676,134.322964 Z M413.698683,132.751179 C413.737298,132.905464 414.012433,132.953679 414.123452,133.045286 C414.326183,133.214036 414.316529,133.377964 414.355144,133.623857 C414.39376,133.999929 414.384106,134.756893 413.877279,134.829214 C413.576401,134.873411 413.324194,134.427395 413.206172,134.107646 L413.206172,134.107646 L413.184642,134.046377 C413.183726,134.043322 413.182807,134.040269 413.181914,134.037308 L413.181914,134.037308 L413.181006,134.035464 L413.180006,134.033464 L413.176006,134.019464 C413.175301,134.015617 413.174726,134.013785 413.173006,134.011464 L413.173006,134.011464 L413.140699,133.901683 C412.973513,133.306302 413.056099,132.954583 413.698683,132.751179 Z M88.8122816,131.344183 C88.9322651,131.296278 88.9777761,131.403727 89.0977596,131.387196 C89.3439327,131.430589 89.0543173,132.042911 88.7695288,132.009161 C88.3254519,131.951304 88.5909327,131.459518 88.7936635,131.334161 L88.7936635,131.334161 L88.7453942,131.382375 Z M89.5949327,129.897375 C89.4115096,129.169339 90.2513942,129.034339 90.5120481,129.646661 L90.5120481,129.646661 C90.5120481,129.641304 90.5136571,129.645054 90.516875,129.651482 C90.5200929,129.661125 90.5190203,129.662196 90.516875,129.656304 C90.705125,130.268625 89.7687019,130.596482 89.5949327,129.897375 Z M84.7824904,125.982375 C84.9393654,126.195321 85.1833932,126.247554 85.3637324,126.398558 L85.3637324,126.398558 L85.4630865,126.503089 L85.485329,126.531786 C85.4987672,126.549606 85.4882252,126.537572 85.4700058,126.513464 L85.4700058,126.513464 L85.5295842,126.608017 C85.6754116,126.885054 85.5805417,127.142196 85.5161827,127.433625 C85.4727404,127.616839 85.3858558,127.988089 85.2169135,128.065232 C84.9852212,127.549339 83.4068173,127.563804 83.8460673,126.604339 C83.9667404,126.334339 84.5025288,126.030589 84.7824904,125.982375 Z M323.763452,27.8590714 L301.31826,29.4260357 L301.83474,75.3163929 L280.615587,29.9515714 L262.683567,29.9515714 L261.636125,114.909964 L285.12876,113.868536 L282.811837,75.1813929 L305.088087,111.626571 L321.673394,111.110679 L323.763452,27.8590714 Z M138.53221,30.5060357 L139.574825,113.434607 L175.043056,113.434607 L183.065402,96.9501429 L183.11102,96.8415661 C183.359168,96.1495085 182.841915,95.3884821 182.08071,95.3976429 L182.08071,95.3976429 L158.901825,95.6049643 L161.51319,31.5281786 L138.53221,30.5060357 Z M60.6700788,16.2114643 C60.6700788,16.2114643 59.0627135,27.4453929 68.9144635,32.4837857 C68.9482519,32.49825 75.9279827,36.8712857 85.4611558,34.0796786 C85.4611558,34.0796786 82.2705596,39.3350357 72.5636173,39.1662857 L72.5636173,39.1662857 L72.5636173,39.18075 L72.5394827,39.1711071 L74.1275404,112.374857 L96.5437712,111.029679 L95.6314827,75.9971786 L106.535502,74.1987857 L107.128099,74.0877196 C116.150536,72.3707244 122.240461,69.9961413 127.26231,64.9705714 C131.900983,60.3323571 134.522002,52.1696786 134.522002,45.4630714 C134.522002,38.7612857 131.96856,32.4259286 127.329887,27.7877143 C122.198867,22.6577143 114.997098,19.9046786 106.516194,19.9046786 L106.516194,19.9046786 L72.2836558,19.9046786 L71.8426028,19.8978642 C68.1541303,19.784742 64.151033,18.2744794 60.6700788,16.2114643 Z M227.822081,28.6309821 L211.270562,28.6309821 L182.617946,111.029196 L207.428331,111.029196 L211.154715,93.1416964 L227.069081,92.4233036 L230.278985,111.029196 L256.474696,111.029196 L227.822081,28.6309821 Z M383.877952,24.8611071 L329.546106,24.8611071 L328.50349,43.6984286 L346.783048,43.0427143 L344.94399,110.8995 L367.398837,111.024857 L366.110048,43.0668214 L384.394433,43.8768214 L383.877952,24.8611071 Z M441.682742,36.6406931 C434.713766,30.595705 426.260472,28.2030354 414.373969,28.8855536 C405.680681,29.3821607 398.416162,32.2460893 393.3672,37.1735893 C388.337546,42.0769821 385.909604,48.6293036 386.3392,56.126625 C386.735008,63.0935893 388.931258,68.4598393 392.870027,72.0759107 C396.707431,75.6051964 402.306662,77.6976964 409.518085,78.3148393 L409.518085,78.3148393 L419.200892,79.1055536 L419.571817,79.1359421 C421.646504,79.330003 423.25524,79.8943929 424.235373,80.764125 C425.30695,81.810375 425.842738,83.1748393 425.953758,85.0744821 C426.127527,88.1071607 424.438104,91.8389464 415.421412,92.3500179 C411.820527,92.5573393 402.890719,92.5332321 397.69695,87.9094821 L397.69695,87.9094821 L397.344585,87.5960893 L384.934565,101.501089 L385.277277,101.814482 L385.632878,102.136045 C393.243954,108.929868 402.465801,111.493092 416.357835,110.695554 C425.543469,110.174839 433.237585,107.291625 438.590642,102.359304 C443.914738,97.4607321 446.497142,90.9325179 446.072373,83.4737679 C445.613815,75.5087679 443.306546,69.8243036 439.005758,66.0925179 L439.005758,66.0925179 L438.695866,65.8235458 C435.031654,62.7209814 429.660566,60.8593929 422.724546,60.2875179 L422.724546,60.2875179 L413.027258,59.4968036 L412.656625,59.4688588 C410.580574,59.2842143 408.917133,58.6527857 407.727296,57.5826964 C406.366104,56.3725179 406.139238,54.9068036 406.115104,54.3282321 C406.004085,52.481625 406.718469,50.7362679 408.118277,49.4151964 C409.672546,47.9446607 411.994296,47.0864464 414.837354,46.9225179 L414.837354,46.9225179 L416.184065,46.8405536 L416.504878,46.8231559 C420.797777,46.6044011 425.695223,46.9375701 429.834604,50.625375 L429.834604,50.625375 L430.186969,50.9387679 L442.394258,37.2700179 L442.041892,36.956625 Z M219.925235,51.0940179 L224.814908,79.3958036 L213.790215,80.5191964 L219.925235,51.0940179 Z M105.62804,37.6330714 C110.594944,37.6330714 112.76706,41.5962857 113.08081,44.9905714 C113.563502,50.2121786 111.067983,54.84075 105.410829,55.9978929 L105.410829,55.9978929 L95.1536173,57.7384286 L95.1536173,37.6330714 Z M357.565,147.715589 L357.566,147.715589 L357.575006,147.715464 L357.565,147.715589 Z" id="Combined-Shape"></path>
                </g>
                <path d="M83.1809173,174.221732 L83.1809173,174.231375 L83.1809173,174.221732 Z" id="Fill-24" fill="#FFFFFF"></path>
                <path d="M168.234681,239.719393 L168.234681,244.492607 L169.272469,244.0635 L179.964104,244.0635 L185.746758,241.580464 L189.4297,241.580464 L201.241181,249.916714 L199.793104,250.84725 L197.973354,250.17225 L196.486662,251.686179 L194.623469,251.040107 L195.912258,263.281714 L164.334527,263.281714 L164.479335,259.135286 L162.780258,259.072607 L163.422238,250.958143 L159.362796,251.666893 L157.856796,248.947607 L164.942719,246.040286 L164.286258,239.719393 L168.234681,239.719393 Z M178.839404,248.960815 L178.549333,248.962554 C177.077121,248.996304 176.010371,249.382018 175.358737,250.124518 C174.702275,250.867018 174.441621,253.282554 174.47541,254.883268 C174.518852,256.488804 174.900179,258.176304 175.600083,258.894696 C176.290333,259.603446 177.371563,259.945768 178.843775,259.912018 C180.31116,259.878268 181.373083,259.492554 182.029544,258.750054 C182.686006,258.007554 182.970794,256.305589 182.932179,254.700054 C182.893563,253.089696 182.488102,250.688625 181.797852,249.979875 C181.102775,249.271125 180.026371,248.928804 178.549333,248.962554 Z M173.219444,249.207964 L167.156829,249.207964 L167.156829,259.7235 L170.347425,259.7235 L170.347425,255.634929 L173.219444,255.634929 L173.219444,253.474929 L170.347425,253.474929 L170.347425,251.367964 L173.219444,251.367964 L173.219444,249.207964 Z M190.104987,249.209411 L184.245102,249.209411 L184.245102,259.720125 L187.430871,259.720125 L187.430871,255.506196 L188.15491,255.506196 C189.400256,255.506196 189.54989,256.137804 189.564371,257.314232 C189.577404,258.164732 189.649084,259.011327 189.772373,259.551741 L189.815371,259.720125 L193.044583,259.720125 C192.808063,259.102982 192.730833,258.312268 192.730833,257.164768 C192.730833,256.240839 192.717405,254.927942 191.13025,254.526281 L190.940044,254.484054 L190.940044,254.459946 C191.30689,254.387625 191.62064,254.305661 191.924737,254.079054 C192.180563,253.881375 192.759794,253.293161 192.759794,251.870839 C192.759794,249.672268 191.717179,249.209411 190.104987,249.209411 Z M178.626563,251.440768 C179.089948,251.431125 179.398871,251.585411 179.543679,251.903625 C179.688487,252.221839 179.813987,254.000946 179.833294,254.757911 C179.852602,255.524518 179.80916,256.594875 179.678833,256.927554 C179.543679,257.255411 179.24441,257.424161 178.781025,257.433804 C178.31764,257.443446 178.008717,257.289161 177.859083,256.961304 C177.699794,256.633446 177.598429,255.563089 177.579121,254.820589 C177.559813,254.073268 177.579121,252.294161 177.714275,251.956661 C177.854256,251.623982 178.158352,251.455232 178.626563,251.440768 Z M187.430871,251.369411 L188.402886,251.369556 C188.680603,251.372175 189.564371,251.421939 189.564371,252.367446 C189.564371,253.379705 188.675686,253.430318 188.284709,253.432849 L187.430871,253.432982 L187.430871,251.369411 L188.402886,251.369556 Z" id="Combined-Shape" fill="#FFFFFF"></path>
                <polygon id="Fill-46" fill="#FFFFFF" points="70.788275 242.823429 76.9956981 242.823429 76.9956981 265.141821 86.9295058 265.141821 86.9295058 242.823429 91.2689096 242.823429 91.2689096 235.383964 70.788275 235.383964"></polygon>
                <g id="Group-50" transform="translate(91.711538, 236.250000)">
                    <mask id="mask-2" fill="white">
                        <use xlink:href="#path-1"></use>
                    </mask>
                    <g id="Clip-49"></g>
                    <polygon id="Fill-48" fill="#FFFFFF" mask="url(#mask-2)" points="0.802234615 8.43353571 6.38698462 8.43353571 6.38698462 30.7519286 16.3159654 30.7519286 16.3159654 8.43353571 20.6601962 8.43353571 20.6601962 0.994071429 0.802234615 0.994071429"></polygon>
                </g>
                <polygon id="Fill-51" fill="#FFFFFF" points="122.92725 234.762482 114.233962 234.762482 114.233962 264.520339 130.993038 264.520339 130.993038 257.702839 122.92725 257.702839"></polygon>
                <polygon id="Fill-53" fill="#FFFFFF" points="132.854783 266.379964 152.094898 266.379964 152.094898 260.179607 141.548071 260.179607 141.548071 256.457464 150.236533 256.457464 150.236533 250.261929 141.548071 250.261929 141.548071 243.439607 152.094898 243.439607 152.094898 236.622107 132.854783 236.622107"></polygon>
                <polygon id="Fill-55" fill="#FFFFFF" points="222.232987 248.402786 222.223333 248.402786 214.804352 236.002071 205.47391 236.002071 205.47391 266.381893 214.162371 266.381893 214.162371 250.263857 214.418198 250.263857 222.546737 264.520821 231.544121 264.520821 231.544121 233.523857 222.232987 233.523857"></polygon>
                <polygon id="Fill-57" fill="#FFFFFF" points="234.026608 266.379964 253.884569 266.379964 253.884569 258.9405 243.337742 258.9405 243.337742 252.123 251.403531 252.123 251.403531 245.922643 243.337742 245.922643 243.337742 242.822464 253.884569 242.822464 253.884569 236.622107 234.026608 236.622107"></polygon>
                <polygon id="Fill-59" fill="#FFFFFF" points="256.985385 264.521786 266.301346 264.521786 266.301346 236.003036 256.985385 236.003036"></polygon>
                <path d="M281.197713,252.739661 L284.919271,252.739661 L284.919271,255.087696 C284.919271,257.059661 283.746329,258.911089 281.50181,258.911089 C279.146271,258.911089 278.089175,256.866804 278.089175,254.701982 L278.089175,244.200911 C278.089175,242.074661 279.05456,240.411268 281.217021,240.411268 C282.264463,240.411268 283.051252,240.883768 283.50981,241.505732 C283.978021,242.122875 284.306252,242.821982 284.378656,244.061089 L293.607733,244.061089 L293.607733,241.881804 C293.607733,235.936982 290.180617,234.760554 285.76881,234.760554 L276.916233,234.760554 C272.316175,234.760554 269.40554,236.086446 269.40554,241.881804 L269.40554,257.483946 C269.40554,263.395018 272.547867,264.518411 276.916233,264.518411 L286.08256,264.518411 C290.721233,264.518411 293.607733,263.163589 293.607733,257.483946 L293.607733,246.544125 L281.197713,246.544125 L281.197713,252.739661 Z" id="Fill-61" fill="#FFFFFF"></path>
                <polygon id="Fill-62" fill="#FFFFFF" points="310.989 245.921679 304.781577 245.921679 304.781577 235.999179 296.093115 235.999179 296.093115 266.379 304.781577 266.379 304.781577 253.983107 310.989 253.983107 310.989 263.900786 320.300135 263.900786 320.300135 233.525786 310.989 233.525786"></polygon>
                <path d="M332.092308,253.361143 L334.669885,253.361143 C337.763942,253.361143 338.227327,255.530786 338.227327,256.461321 C338.227327,259.551857 334.785731,259.5615 334.008596,259.5615 L332.092308,259.5615 L332.092308,253.361143 Z M334.476808,247.78275 L332.092308,247.78275 L332.092308,242.204357 L334.669885,242.204357 C337.107481,242.204357 337.957019,243.636321 337.957019,244.914 C337.957019,245.338286 337.841173,247.78275 334.476808,247.78275 L334.476808,247.78275 Z M342.021288,251.085429 L342.021288,251.013107 C344.502327,250.241679 347.065423,248.954357 347.065423,243.506143 C347.065423,237.754179 344.492673,235.999179 339.429231,235.999179 L323.399019,235.999179 L323.399019,265.757036 L339.694712,265.757036 C344.531288,265.757036 347.297115,264.11775 347.297115,258.2115 C347.297115,255.627214 346.988192,251.895429 342.021288,251.085429 L342.021288,251.085429 Z" id="Fill-63" fill="#FFFFFF"></path>
                <polygon id="Fill-64" fill="#FFFFFF" points="428.297712 265.756071 437.608846 265.756071 437.608846 235.998214 428.297712 235.998214"></polygon>
                <polygon id="Fill-65" fill="#FFFFFF" points="448.777863 233.524339 440.084575 233.524339 440.084575 263.282196 456.848479 263.282196 456.848479 256.459875 448.777863 256.459875"></polygon>
                <polygon id="Fill-66" fill="#FFFFFF" points="468.63679 236.622589 459.948329 236.622589 459.948329 266.380446 476.707406 266.380446 476.707406 258.940982 468.63679 258.940982"></polygon>
                <polygon id="Fill-67" fill="#FFFFFF" points="499.050267 240.963804 499.050267 234.141482 479.192306 234.141482 479.192306 263.282196 499.050267 263.282196 499.050267 257.703804 488.498613 257.703804 488.498613 253.359696 496.564402 253.359696 496.564402 247.159339 488.498613 247.159339 488.498613 240.963804"></polygon>
                <path d="M31.0651115,252.122518 L33.5558038,252.122518 C36.6498615,252.122518 37.1132462,254.292161 37.1132462,255.222696 C37.1132462,258.308411 33.67165,258.318054 32.8993423,258.318054 L31.0651115,258.318054 L31.0651115,252.122518 Z M33.3627269,246.544125 L31.0651115,246.544125 L31.0651115,240.965732 L33.5558038,240.965732 C35.9934,240.965732 36.8429385,242.397696 36.8429385,243.675375 C36.8429385,244.099661 36.7270923,246.544125 33.3627269,246.544125 L33.3627269,246.544125 Z M40.9989192,249.721446 L40.9989192,249.644304 C43.4799577,248.872875 45.9947846,247.648232 45.9947846,242.200018 C45.9947846,236.448054 43.3785923,234.760554 38.3103231,234.760554 L19.8956115,234.760554 L19.8956115,240.965732 L22.37665,240.965732 L22.37665,264.518411 L38.5854577,264.518411 C43.4172077,264.518411 46.2313038,262.821268 46.2313038,256.905375 C46.2313038,254.321089 45.9609962,250.531446 40.9989192,249.721446 L40.9989192,249.721446 Z" id="Fill-68" fill="#FFFFFF"></path>
                <path d="M57.2125538,254.599286 L59.8818423,242.825357 L59.9590731,242.825357 L62.5849192,254.599286 L57.2125538,254.599286 Z M52.7283423,237.242143 L46.5160923,264.521786 L54.9342462,264.521786 L55.8224,260.799643 L63.9412846,260.799643 L65.2155923,266.378036 L74.4977654,266.378036 L67.8848808,237.242143 L52.7283423,237.242143 Z" id="Fill-69" fill="#FFFFFF"></path>
                <path d="M393.17364,245.516679 C393.17364,248.52525 390.388506,248.404714 389.384506,248.404714 L387.328237,248.404714 L387.328237,242.8215 L389.77066,242.8215 C390.388506,242.8215 393.17364,242.696143 393.17364,245.516679 M399.82514,250.193464 C400.558833,249.648643 402.180679,248.076857 402.180679,244.060607 C402.180679,237.845786 399.24591,236.621143 394.67964,236.621143 L378.017102,236.621143 L378.017102,266.379 L387.328237,266.379 L387.328237,253.983107 L388.747352,253.983107 C388.983871,253.983107 389.230044,253.973464 389.47139,253.949357 L393.559794,263.283643 L403.759083,263.283643 L397.870237,250.969714 C398.565313,250.796143 399.207294,250.665964 399.82514,250.193464" id="Fill-70" fill="#FFFFFF"></path>
                <polygon id="Fill-71" fill="#FFFFFF" points="415.291085 253.982625 415.213854 253.982625 412.081181 234.142446 403.074142 234.142446 407.6742 263.283161 422.135662 263.283161 426.6247 236.003518 418.196892 236.003518"></polygon>
                <path d="M358.593563,251.694375 C357.912967,249.360804 357.521987,247.186339 357.681275,246.024375 C357.835737,244.862411 358.641833,244.071696 360.099563,243.647411 C361.562121,243.223125 362.657833,243.449732 363.377044,244.332054 C364.101083,245.209554 364.926487,247.258661 365.621563,249.635625 C366.321467,252.007768 366.717275,254.196696 366.572467,255.339375 C366.42766,256.482054 365.631217,257.263125 364.18314,257.682589 C362.735063,258.102054 361.634525,257.860982 360.881525,256.964196 C360.118871,256.067411 359.278987,254.023125 358.593563,251.694375 M368.971448,236.829911 C366.215275,235.171339 362.527506,235.012232 357.922621,236.342946 C353.317737,237.683304 350.296083,239.780625 348.862487,242.654196 C347.42889,245.527768 347.443371,249.466875 348.905929,254.476339 C350.373313,259.485804 352.487506,262.827054 355.267813,264.490446 C358.043294,266.158661 361.726237,266.327411 366.321467,264.996696 C370.916698,263.665982 373.928698,261.568661 375.362294,258.695089 C376.79589,255.821518 376.78141,251.872768 375.314025,246.848839 C373.841813,241.829732 371.732448,238.488482 368.971448,236.829911" id="Fill-72" fill="#FFFFFF"></path>
            </g>
        </g>
    </g>
</svg>