<svg xmlns="http://www.w3.org/2000/svg" viewBox="0 0 500 90.1"><defs><style>.cls-1{fill:#fff;}</style></defs><title>bejeweled-classic-mono-logo</title><g id="Layer_2" data-name="Layer 2"><g id="Layer_1-2" data-name="Layer 1"><path class="cls-1" d="M491.41,78.92h-1.55V83.2h-.81V78.92H487.5v-.67h3.91Zm6.45,4.28h-.81V79.07h0L495.4,83.2h-.52l-1.62-4.13h0V83.2h-.82v-5h1.26L495.16,82l1.46-3.76h1.24Z"/><path class="cls-1" d="M188,13.84a26.55,26.55,0,0,1,5.54.4V.86A42.32,42.32,0,0,0,188,.67c-21.44.69-38.82,16.86-38.82,36.13S166.6,71.13,188,70.45a45.79,45.79,0,0,0,5.54-.53V56.53a27.91,27.91,0,0,1-5.54.75c-10.82.35-21.4-4.7-24.25-15.15,9.73-.19,19.6-.31,29.66-.53v-13c-9.94.15-19.7.42-29.31.72,3.21-9.57,12.93-15.09,23.9-15.43Z"/><path class="cls-1" d="M339.89,13.57a28.11,28.11,0,0,1,5.55.75V.94a44.2,44.2,0,0,0-5.55-.53c-21.44-.69-38.82,15.17-38.82,34.44,0,20.42,17.08,36.22,38.82,36.91a40.86,40.86,0,0,0,5.55-.18V58.21a27.4,27.4,0,0,1-5.55.38c-11.6-.36-21.43-6.07-24.21-16.87,9.71.29,19.59.53,29.63,1V29.37c-10-.21-19.85-.4-29.48-.54,3.1-10.2,13.46-15.59,24.06-15.26Z"/><path class="cls-1" d="M96.07,15.16c.81-.05,1.61-.06,2.4-.07V.82c-.79,0-1.59.06-2.4.11C70.92,2.73,50.54,17.67,50.54,42.36S70.92,79.09,96.07,77.3c.81-.06,1.61-.14,2.4-.23V62.81c-.79.11-1.59.2-2.4.26-15.13,1-27.9-3-31.1-15.37,10.74-.74,21.91-1.34,33.5-2.1V31.35C87,31.87,76,32.88,65.33,33.83,69,22.37,81.24,16.14,96.07,15.16Z"/><path class="cls-1" d="M438.81,14.34c.82.06,1.63.18,2.45.29V.43c-.82-.1-1.63-.18-2.45-.25C413.2-1.76,392.44,11.67,392.44,38s20.76,43.08,46.37,45c.82.06,1.63.1,2.45.12V69c-.82,0-1.63,0-2.45-.08C423.49,67.8,410.14,60.19,407,45.87c10.91.78,22.4,1.65,34.24,2.79v-15q-18.78-1.24-33.93-2.16c3.5-13.3,16.25-18.23,31.48-17.11Z"/><path class="cls-1" d="M128.49.77V39.18c0,12.65-6.36,19-22.48,22.42V76.09c23.22-4.33,36.37-15.83,36.37-36.91V.77Z"/><path class="cls-1" d="M369.13.77V39.18c0,12.65,6.36,19,22.47,22.42V76.09c-23.21-4.33-36.37-15.83-36.37-36.91V.77Z"/><path class="cls-1" d="M233.15,69.67l16-26.26,16,26.26a70.67,70.67,0,0,0,32.35-59.32,72.66,72.66,0,0,0-.66-9.63H283a56.54,56.54,0,0,1,.84,9.63,55.89,55.89,0,0,1-15.5,38.78L249.2,17.74,230.09,49.13a55.89,55.89,0,0,1-15.5-38.78,56.54,56.54,0,0,1,.83-9.63H201.47a71,71,0,0,0-.67,9.63,70.67,70.67,0,0,0,32.35,59.32Z"/><path class="cls-1" d="M37.43,40.66A20,20,0,0,0,43.5,26.1C43.5,9.08,24.39-1.37,0,.86V90.1C25.46,87.56,45.75,75.27,45.75,57c0-6.18-2.61-13.53-8.32-16.29ZM13.89,73.48v-59c9.71,1.12,15.67,5.72,15.67,13.63,0,6.36-3,11.13-9.07,14.23,7.36,2.34,11.2,6.55,11.2,14,0,9.34-7.26,15.43-17.8,17.19Z"/><path class="cls-1" d="M450.8.67V83.88C478,84.81,500,71.29,500,43.13S478,1.6,450.8.67Zm13.89,68.06V17c12.85,3.09,21.82,11.84,21.82,26.51,0,14.86-8.51,23.22-21.82,25.27Z"/></g></g></svg>