<svg width="322" height="190" viewBox="0 0 322 190" fill="none" xmlns="http://www.w3.org/2000/svg"><path d="M1.02996 157.06H12.97l5.42 20.44 5.42-20.44h11.94l.95 31.59h-9.3v-19l-4.97 19h-8.57l-4.97004-19v19H.079956l.950004-31.59zM40.23 172.83c0-10.1 6.17-16.27 16.12-16.27 9.95 0 16.12 6.17 16.12 16.27s-6.17 16.32-16.12 16.32c-9.95 0-16.12-6.22-16.12-16.32zm22.53-.1c0-4.73-1.94-8.41-6.42-8.41s-6.42 3.68-6.42 8.41 1.94 8.46 6.42 8.46 6.42-3.73 6.42-8.46zM103.31 179.39c0 3.73-1.74 5.92-3.88 7.26-2.14 1.34-5.37 1.99-9.1 1.99H76.5v-31.59h13.33c2.98 0 6.47.45 8.46 1.69 1.99 1.24 3.43 3.28 3.43 6.52 0 3.24-2.29 5.87-5.27 6.62 4.23.75 6.86 3.78 6.86 7.51zm-17.41-10.1h3.43c.8 0 1.44-.2 1.99-.65s.9-1.14.9-1.99c0-.8-.3-1.44-.85-1.89-.5-.45-1.19-.7-2.04-.7H85.9V169.29zm7.71 9.35c0-.8-.2-1.39-.55-1.84-.7-.9-1.99-1.24-3.68-1.24H85.9v6.17h3.48c1.69 0 2.99-.35 3.68-1.24.35-.45.55-1.05.55-1.84v-.01zM107.09 157.06h9.5v31.59h-9.5v-31.59zM122.26 157.06h9.5v23.98h11.89v7.61h-21.39v-31.59zM147.23 157.06h22.33v7.36h-12.83v4.38h11.89v7.46h-11.89v4.83h13.28v7.56h-22.78v-31.59zM160.66 85.26c23.544 0 42.63-19.0861 42.63-42.63C203.29 19.0861 184.204 0 160.66 0c-23.544 0-42.63 19.0861-42.63 42.63 0 23.5439 19.086 42.63 42.63 42.63z" fill="#fff"/><path d="M188.7 49.4898h1.08v.19h-.43v.92h-.22v-.92h-.43v-.19zm-50.85 4.28h-2.46c-.55 0-.82-.3-.82-.91v-.97c0-.28.07-.5.23-.68.15-.18.35-.27.6-.27h1.93c.45 0 .76.22.9.66l.27.94h1.76v-1.03c0-.69-.23-1.26-.69-1.72-.47-.46-1.04-.69-1.71-.69h-2.85c-.67 0-1.25.24-1.74.72-.47.48-.71 1.05-.71 1.71v1.66c0 .68.24 1.26.71 1.74.48.48 1.07.71 1.74.71h2.46c.54 0 .82.32.82.93v1.26c0 .27-.07.5-.22.67-.16.18-.35.27-.6.27h-1.95c-.49 0-.79-.23-.91-.66l-.26-1.06h-1.78v1.14c0 .7.23 1.26.69 1.72.46.46 1.03.69 1.72.69h2.89c.67 0 1.25-.24 1.73-.72.47-.47.7-1.05.7-1.73v-1.95c0-.67-.24-1.24-.72-1.72-.48-.49-1.05-.73-1.72-.73l-.01.02zm11.77-3.94c.47.47.71 1.05.71 1.71v2.42c0 .68-.24 1.25-.71 1.73-.49.48-1.07.72-1.74.72h-3.17v4.23h-2.03v-11.51h5.21c.67 0 1.26.24 1.74.72l-.01-.02zm-1.32 2.09c0-.28-.08-.5-.23-.68-.15-.18-.35-.27-.59-.27h-2.78v3.57h2.78c.24 0 .44-.09.59-.27.15-.18.23-.4.23-.68v-1.68.01zm20.26 3.95l2.02 4.76h-2.16l-1.88-4.51h-1.93v4.51h-2.04v-11.51h5.09c.68 0 1.26.24 1.73.72.48.47.72 1.05.72 1.71v2.01c0 .52-.14 1-.43 1.42-.3.42-.68.71-1.12.91v-.02zm-.49-3.95c0-.27-.07-.5-.22-.68-.15-.18-.34-.27-.58-.27h-2.67v3.29h2.67c.24 0 .43-.09.58-.25.15-.18.22-.4.22-.68v-1.42.01zm3.33-.94h2.93v9.66h2.04v-9.66h2.95v-1.86h-7.92v1.86zm14.7 2.8h-2.45c-.54 0-.82-.3-.82-.91v-.97c0-.28.08-.5.22-.68.14-.18.35-.27.6-.27h1.93c.45 0 .76.22.9.66l.27.94h1.77v-1.03c0-.69-.24-1.26-.7-1.72-.47-.46-1.04-.69-1.72-.69h-2.84c-.68 0-1.26.24-1.73.72s-.72 1.05-.72 1.71v1.66c0 .68.25 1.26.72 1.74s1.05.71 1.73.71h2.45c.55 0 .82.32.82.93v1.26c0 .27-.07.5-.22.67-.15.18-.35.27-.6.27h-1.95c-.49 0-.79-.23-.91-.66l-.27-1.06h-1.77v1.14c0 .7.23 1.26.69 1.72.47.46 1.03.69 1.72.69h2.88c.68 0 1.26-.24 1.74-.72.47-.47.71-1.05.71-1.73v-1.95c0-.67-.24-1.24-.73-1.72-.47-.49-1.05-.73-1.72-.73v.02zm5.02-4.28l-.44.67-.44-.67h-.19v1.11h.19v-.69s-.02-.08-.02-.12c.02.04.05.08.07.11l.36.56h.03l.35-.55s.03-.08.05-.12V50.6098h.2v-1.11h-.17.01zm-31.74.33c.49.46.72 1.05.72 1.72v6.62c0 .7-.23 1.28-.72 1.75-.48.48-1.05.72-1.73.72h-2.75c-.69 0-1.27-.24-1.74-.72-.48-.47-.72-1.05-.72-1.75v-6.62c0-.66.24-1.24.72-1.71.48-.48 1.06-.72 1.74-.72h2.75c.69 0 1.25.24 1.73.71zm-1.31 2.09c0-.27-.08-.5-.24-.68-.15-.18-.35-.27-.58-.27h-1.95c-.25 0-.45.09-.6.27-.15.18-.22.4-.22.68v5.9c0 .27.07.49.22.67.15.19.35.28.6.28h1.95c.24 0 .43-.1.58-.28.16-.18.24-.4.24-.67v-5.9zm8.59-32.19h-21.91l-3.35 5.33h21.91l3.36-5.33h-.01zm8.3 15.98h-3.29l-3.37 5.34h10.02l3.37 5.33h6.4l-16.96-26.83-13.62 21.51h-14.9l3.42-5.34h9.25l3.37-5.33h-20.64l-3.37 5.33h4.95l-6.75 10.66h27.75l10.53-16.73 3.82 6.06h.02z" fill="#000"/><path d="M0 95.5303h15.78l3.29 24.9897 3.45-24.9897h14.91V148.97H26.05v-29.16L21 148.97h-4.73l-5.05-29.16v29.16H0V95.5303zM58.67 141.14h-6.09l-.88 7.83H40.24l7.61-53.4397h16.27l8.34 53.4397H59.64l-.96-7.83h-.01zm-4.89-10.56h3.69l-1.84-16.23-1.84 16.23h-.01zM75.26 95.5303h18.92c7.37 0 11.94 3.23 11.94 11.7797v29.38c0 8.4-4.09 12.28-11.86 12.28h-19V95.5303zM88.32 138.7h1.84c1.92 0 2.48-1.01 2.48-3.23v-26.93c0-2.23-.48-3.09-2.32-3.09h-2v33.26-.01zM108.85 95.5303h18.92c7.37 0 11.94 3.23 11.94 11.7797v29.38c0 8.4-4.09 12.28-11.86 12.28h-19V95.5303zM121.91 138.7h1.84c1.92 0 2.48-1.01 2.48-3.23v-26.93c0-2.23-.48-3.09-2.32-3.09h-2v33.26-.01zM167.76 95.5303V106.59h-12.18v9.12h9.38v11.35h-9.38v10.63h12.18v11.28h-25.25V95.5303h25.25zM183.39 95.5303l6.81 25.8597V95.5303h11.3V148.97h-11.62l-7.85-27.87v27.87h-11.46V95.5303h12.82zM270.81 106.59v7.25h-12.28v-8.4c0-5.39 3.44-10.5596 12.77-10.5596h2.78c9.17 0 14.08 3.95 14.08 11.1296v2.8c0 5.39-.33 8.19-5.32 13.57-1.72 1.94-3.68 4.02-5.9 6.25-7.7 8.12-7.45 8.98-7.45 10.06h18.67v10.27h-30.62v-7.04c0-5.53.33-8.12 8.11-18.17 1.72-2.37 3.6-4.96 5.16-6.9 2.87-4.09 3.52-5.46 3.52-7.4v-2.87c0-1.36-.57-2.01-1.8-2.01-1.31 0-1.72.65-1.72 2.01v.01zM291.69 111.4v-5.89c0-5.46 3.6-10.6296 12.77-10.6296h2.37c9.25 0 13.76 4.09 13.76 10.6296v5.32c0 4.88-2.62 6.82-4.18 7.83 2.87.86 4.91 3.3 4.91 6.82v12.28c0 7.76-5.65 11.99-14.25 11.99h-2.38c-10.48 0-13.67-5.46-13.67-10.56V130h12.94v7.04c0 1.29.65 1.94 1.88 1.94s1.88-.65 1.88-1.94v-9.12c0-1.36-.25-1.8-1.8-1.8h-6.47v-10.85h5.98c1.31 0 1.97-.65 1.97-1.87v-6.82c0-1.51-.49-1.94-1.8-1.94-1.23 0-1.72.5-1.72 1.94v4.81h-12.2l.01.01zM251.38 95.5401c-1.97 1.41-5.73 3.34-10.57 2.14-8.38-2.07-10.78-9.29-10.78-9.29s-2.4 7.22-10.79 9.29c-4.84 1.19-8.6-.73-10.57-2.14h-1.51V134.49c0 .98.24 2.92 1.84 4.86 1.97 2.4 5.32 3.95 9.95 4.62 3.68.54 6.41 1.69 8.32 3.54 1.42 1.36 2.76 3.71 2.76 3.71s1.39-2.4 2.75-3.71c1.92-1.85 4.64-3.01 8.33-3.54 4.62-.67 7.98-2.22 9.95-4.62 1.6-1.94 1.84-3.88 1.84-4.86V95.5401h-1.52z" fill="#fff"/><path d="M251.52 97.0602s-4.58 3.5698-11.04 1.95c-7.53-1.88-10.45-7.52-10.45-7.52s-2.93 5.64-10.46 7.52c-6.45 1.6098-11.04-1.95-11.04-1.95V134.48c0 1.27.53 6.67 10.61 8.13 3.97.58 6.95 1.86 9.08 3.91.77.74 1.36 1.49 1.81 2.18.44-.69 1.02-1.44 1.8-2.18 2.13-2.05 5.1-3.33 9.08-3.91 10.08-1.46 10.61-6.86 10.61-8.13V97.0602z" fill="#013369"/><path d="M230.03 144.89s2.92-3.61 10.52-4.78c8.7-1.34 8.45-5.43 8.45-5.64v-19.6h-37.94v19.6c0 .21-.25 4.3 8.44 5.64 7.6 1.17 10.53 4.78 10.53 4.78z" fill="#fff"/><path d="M221.18 129.2v-9.32l-1.17-.66v-2.42h5.33v2.42l-1.11.66v19.01l-2.85-.85-4.12-12.15v8.01l1.31 1v2.47l-5.71-1.46v-2.11l1.3-.51v-13.42l-1.34-.66v-2.42h4.33l4.04 12.4-.01.01zM230.99 137.73l1.14 1.36v2.42l-5.66-2.11v-2.05l1.25-.51v-16.95l-1.25-.63v-2.44h9.84v4.92h-2.16l-.65-2.02H231v5.69h1.88l.74-1.08h1.5v5.06h-1.5l-.71-1.02H231v9.38l-.01-.02zM237.24 138.58v-2.42l1.41-1.16v-15.13l-1.21-.63v-2.44h5.67v2.44l-1.11.63v14.2l2.44-.66.47-3.72h2.33v6.21l-9.99 2.67-.01.01z" fill="#D50A0A"/><path d="M212.05 110.87l-1.72-1.29h2.1l.69-1.99.69 1.99h2.1l-1.72 1.29.63 2.01-1.71-1.2-1.7 1.2.63-2.01h.01zM219.49 110.87l-1.71-1.29h2.1l.69-1.99.69 1.99h2.1l-1.72 1.29.63 2.01-1.71-1.2-1.7 1.2.63-2.01zM212.05 104.15l-1.72-1.29h2.1l.69-1.99.69 1.99h2.1l-1.72 1.29.63 2.02-1.71-1.2-1.7 1.2.63-2.02h.01zM219.49 104.15l-1.71-1.29h2.1l.69-1.99.69 1.99h2.1l-1.72 1.29.63 2.02-1.71-1.2-1.7 1.2.63-2.02zM248.64 112.88l-1.71-1.2-1.71 1.2.63-2.01-1.72-1.29h2.1l.69-1.99.69 1.99h2.1l-1.72 1.29.64 2.01h.01zM241.2 112.88l-1.71-1.2-1.7 1.2.63-2.01-1.72-1.29h2.1l.69-1.99.7 1.99h2.1l-1.72 1.29.63 2.01zM248.64 106.16l-1.71-1.2-1.71 1.2.63-2.02-1.72-1.29h2.1l.69-1.99.69 1.99h2.1l-1.72 1.29.64 2.02h.01zM241.2 106.16l-1.71-1.2-1.7 1.2.63-2.02-1.72-1.29h2.1l.69-1.99.7 1.99h2.1l-1.72 1.29.63 2.02zM234.76 98.7603s-.89.47-2.13 1.6797c.28.16.6.38.77.53-.19.17-.38.34-.55.51-.81-.67-1.65-1-2.3-1.16.21-.16.45-.31.68-.4497.34.09.69.2297.69.2297 1.4-1.0697 2.61-1.5297 2.61-1.5297s-.14-.07-.51-.06c-5.51.07-10.58 4.1797-9.62 11.2097.1.75.39 2.1.76 2.7.12-1.17.56-3.76 1.87-6.54-.45-.16-.82-.23-.82-.23.13-.28.31-.64.31-.64.96.18 1.82.59 2.56 1.18-.18.28-.3.47-.38.62-.26-.2-.52-.38-.81-.53-1.47 2.56-2.15 4.99-2.42 6.25.01.08.17.12.3.11 6.03-.78 8.86-3.86 9.72-7.19.57-2.19.38-4.48-.38-6.3397-.05-.13-.15-.35-.33-.33l-.02-.02zm-5.19 6.6497c-.79-.66-1.7-1.06-2.6-1.23 0 0 .28-.45.43-.68 1.1.22 1.99.73 2.61 1.26-.16.23-.31.45-.45.65h.01zm.99-1.39c-.73-.61-1.61-1.07-2.62-1.27.15-.2.33-.41.5-.6.77.13 1.75.54 2.6 1.25-.17.21-.34.42-.49.62h.01zm1.1-1.33c-.76-.63-1.62-1.04-2.53-1.23.22-.21.45-.38.65-.55 1.14.27 1.9.78 2.43 1.21-.19.19-.37.38-.54.57h-.01z" fill="#fff"/></svg>